<?xml version="1.0" encoding="utf-8"?>
<!-- Generator: Adobe Illustrator 19.0.0, SVG Export Plug-In . SVG Version: 6.00 Build 0)  -->
<svg version="1.1" id="Layer_1" xmlns="http://www.w3.org/2000/svg" xmlns:xlink="http://www.w3.org/1999/xlink" x="0px" y="0px"
	 viewBox="0 0 2408.5 360.4" style="enable-background:new 0 0 2408.5 360.4;" xml:space="preserve">
<style type="text/css">
	.st0{fill:#962F30;}
</style>
<path id="XMLID_7_" class="st0" d="M166.8,10.8h23.9l155.5,336.3h-37.2l-42.5-93.5h-177L47,347.1H11.3L166.8,10.8z M256,231.1
	L178.2,48L100,231.1H256z"/>
<path id="XMLID_10_" class="st0" d="M399.6,208.2V13.1h34.8v192.7c0,78.7,32.4,114,103,114c67.7,0,101.1-31,101.1-111.6V13.1h34.8
	v192.2c0,95.9-55.8,146.9-136.9,146.9C456.3,352.3,399.6,301.7,399.6,208.2z"/>
<path id="XMLID_12_" class="st0" d="M849.8,46.1H743.5V13.1H1001v32.9H884.7v301h-34.8V46.1z"/>
<path id="XMLID_17_" class="st0" d="M1455.6,13.1h34.8v301h186v32.9h-220.9V13.1z"/>
<path id="XMLID_19_" class="st0" d="M1877.8,10.8h23.8l155.5,336.3h-37.2l-42.5-93.5h-177l-42.5,93.5h-35.8L1877.8,10.8z
	 M1967,231.1L1889.2,48L1811,231.1H1967z"/>
<path id="XMLID_22_" class="st0" d="M2127.7,13.1h137.9c37.7,0,68.2,11,86.8,29.6c13.8,13.8,21.5,31.5,21.5,52.5v1
	c0,45.3-29.6,68.2-56.8,79.2c40.1,10.5,75.4,33.4,75.4,79.7v1c0,55.8-47.7,91.1-119.7,91.1h-145V13.1z M2262.7,157.2
	c50.1,0,75.9-14.3,75.9-58.7v-1c0-36.7-20-51.5-73.5-51.5h-102.6v111.2H2262.7z M2273.7,314.1c57.2,0,83.5-16.2,83.5-58.2v-1
	c0-41-25.8-54.9-91.6-54.9h-103v114H2273.7z"/>
<path id="XMLID_32_" class="st0" d="M1371.2,179.1c0-34.3-9.4-67.1-26.5-94.7l-23.4,30.4c9.5,19.5,14.7,41.8,14.7,65.3v0.9
	c0,77-55.2,139.3-132.2,139.3c-13.3,0-28-2.9-39.9-6.4l-20.5,26.9c17.8,6.4,38.4,11.9,59.5,11.9c101.1,0,168.4-81.6,168.4-172.7
	C1371.7,179.6,1371.7,179.6,1371.2,179.1z"/>
<path id="XMLID_33_" class="st0" d="M1070.6,180.1v-0.9c0-77,55.2-139.3,132.2-139.3c33.9,0,63.7,12.2,86.5,32.5l23.5-25.4
	c-28.2-24.5-65.3-39.5-109.1-39.5c-101.1,0-168.4,81.6-168.4,172.7v1c0,2.9,0.1,3.9,0.2,6.8l40.2,31.8
	C1072.4,207,1070.6,193.8,1070.6,180.1z"/>
<polygon id="XMLID_2_" class="st0" points="1014.6,182.2 1122.7,269 1345.1,25 1365.7,41.6 1127.1,345.5 992.7,199 "/>
</svg>
