<?xml version="1.0" encoding="utf-8"?>
<!-- Generator: Adobe Illustrator 19.0.0, SVG Export Plug-In . SVG Version: 6.00 Build 0)  -->
<svg version="1.1" id="List" xmlns="http://www.w3.org/2000/svg" xmlns:xlink="http://www.w3.org/1999/xlink" x="0px" y="0px"
	 viewBox="-2489 2491 20 20" style="enable-background:new -2489 2491 20 20;" xml:space="preserve">
<style type="text/css">
	.st0{fill:#FFFFFF;}
</style>
<path class="st0" d="M-2474.6,2500h-5.8c-0.6,0-0.6,0.4-0.6,1s0,1,0.6,1h5.8c0.6,0,0.6-0.4,0.6-1S-2474,2500-2474.6,2500z
	 M-2472.6,2505h-7.8c-0.6,0-0.6,0.4-0.6,1s0,1,0.6,1h7.8c0.6,0,0.6-0.4,0.6-1S-2472,2505-2472.6,2505z M-2480.4,2497h7.8
	c0.6,0,0.6-0.4,0.6-1s0-1-0.6-1h-7.8c-0.6,0-0.6,0.4-0.6,1S-2481,2497-2480.4,2497z M-2483.6,2500h-1.8c-0.6,0-0.6,0.4-0.6,1
	s0,1,0.6,1h1.8c0.6,0,0.6-0.4,0.6-1S-2483,2500-2483.6,2500z M-2483.6,2505h-1.8c-0.6,0-0.6,0.4-0.6,1s0,1,0.6,1h1.8
	c0.6,0,0.6-0.4,0.6-1S-2483,2505-2483.6,2505z M-2483.6,2495h-1.8c-0.6,0-0.6,0.4-0.6,1s0,1,0.6,1h1.8c0.6,0,0.6-0.4,0.6-1
	S-2483,2495-2483.6,2495z"/>
</svg>
