<?xml version="1.0" encoding="utf-8"?>
<!-- Generator: Adobe Illustrator 19.0.0, SVG Export Plug-In . SVG Version: 6.00 Build 0)  -->
<svg version="1.1" id="Heart" xmlns="http://www.w3.org/2000/svg" xmlns:xlink="http://www.w3.org/1999/xlink" x="0px" y="0px"
	 viewBox="-2489 2491 20 20" style="enable-background:new -2489 2491 20 20;" xml:space="preserve">
<style type="text/css">
	.st0{fill:#FFFFFF;}
</style>
<g id="ljztxz.tif">
	<g id="XMLID_41_">
		<path class="st0" d="M-2478.8,2494.1c2.2,0,4.5,0,6.7,0c1.2,0,1.9,0.7,1.9,1.9c0,2.9,0,5.8,0,8.7c0,1.1-0.7,1.9-1.9,1.9
			c-4.5,0-9,0-13.5,0c-1.2,0-1.9-0.7-1.9-1.9c0-2.9,0-5.7,0-8.6c0-1.2,0.7-1.9,1.9-1.9C-2483.3,2494.1-2481,2494.1-2478.8,2494.1z
			 M-2485.8,2495.1c0.2,0.2,0.3,0.3,0.4,0.4c2.1,2.1,4.2,4.2,6.2,6.3c0.4,0.4,0.5,0.3,0.9,0c2.1-2.1,4.1-4.2,6.2-6.3
			c0.1-0.1,0.1-0.2,0.3-0.3C-2476.5,2495.1-2481.1,2495.1-2485.8,2495.1z M-2484.8,2505.7c4.1,0,8,0,12,0c-0.1-0.1-0.1-0.2-0.1-0.2
			c-1.3-1.3-2.6-2.5-3.9-3.8c-0.2-0.2-0.3-0.1-0.4,0c-0.4,0.4-0.7,0.8-1.1,1.1c-0.4,0.4-0.5,0.4-0.8,0c-0.4-0.4-0.8-0.8-1.1-1.2
			c-0.2-0.2-0.4-0.3-0.6,0c-1.2,1.2-2.4,2.4-3.6,3.6C-2484.6,2505.4-2484.7,2505.5-2484.8,2505.7z M-2471.1,2495.5
			c-0.2,0.2-0.3,0.3-0.4,0.4c-1.5,1.5-3,3.1-4.6,4.6c-0.3,0.3-0.2,0.4,0,0.7c1.4,1.4,2.8,2.8,4.1,4.1c0.4,0.4,0.7,0.3,0.9-0.2
			c0.1-0.2,0.1-0.3,0.1-0.5c0-2.8,0-5.7,0-8.5C-2471,2495.9-2471,2495.8-2471.1,2495.5z M-2486.5,2495.6c0,0.3-0.1,0.4-0.1,0.5
			c0,2.9,0,5.7,0,8.6c0,0.2,0,0.4,0.1,0.6c0.2,0.4,0.4,0.4,0.7,0.1c1.4-1.4,2.8-2.8,4.2-4.2c0.3-0.3,0.3-0.4,0-0.7
			c-1.5-1.5-3-3-4.6-4.6C-2486.2,2495.8-2486.3,2495.8-2486.5,2495.6z"/>
	</g>
</g>
</svg>
