<?xml version="1.0" encoding="utf-8"?>
<!-- Generator: Adobe Illustrator 19.0.0, SVG Export Plug-In . SVG Version: 6.00 Build 0)  -->
<svg version="1.1" id="Heart" xmlns="http://www.w3.org/2000/svg" xmlns:xlink="http://www.w3.org/1999/xlink" x="0px" y="0px"
	 viewBox="-2489 2491 20 20" style="enable-background:new -2489 2491 20 20;" xml:space="preserve">
<style type="text/css">
	.st0{fill:#FFFFFF;}
</style>
<g id="GRwuJx.tif">
	<g>
		<path class="st0" d="M-2486.4,2496.9C-2486.4,2496.9-2486.4,2496.9-2486.4,2496.9c0.1-0.3,0.1-0.3,0.3-0.1
			c0.6,0.6,1.2,1.1,1.8,1.7c0.8,0.8,1.6,1.5,2.4,2.3c0.3,0.3,0.5,0.5,0.8,0.8c0.1,0.1,0.1,0.1,0,0.2c-1.1,0.8-2.1,1.6-3.2,2.4
			c-0.6,0.4-1.2,0.9-1.8,1.3c-0.1,0.1-0.1,0.1-0.1,0c0-0.1-0.1-0.2-0.1-0.3C-2486.4,2502.4-2486.4,2499.6-2486.4,2496.9z"/>
		<path class="st0" d="M-2471.6,2505.1c0,0.1-0.1,0.2-0.1,0.3c0,0.1-0.1,0.1-0.1,0c-0.4-0.3-0.8-0.6-1.2-0.9c-0.7-0.5-1.3-1-2-1.5
			c-0.6-0.5-1.2-0.9-1.9-1.4c-0.1-0.1,0-0.1,0-0.1c0.4-0.4,0.8-0.8,1.3-1.2c0.5-0.5,1-0.9,1.4-1.4c0.5-0.5,1.1-1,1.6-1.5
			c0.3-0.2,0.5-0.5,0.8-0.7c0.1-0.1,0.1-0.1,0.2,0.1c0,0,0,0.1,0,0.1C-2471.6,2499.6-2471.6,2502.4-2471.6,2505.1z"/>
		<path class="st0" d="M-2479,2496c2.1,0,4.1,0,6.2,0c0.1,0,0.3,0,0.4,0c0.1,0,0.1,0,0,0.1c-0.3,0.2-0.5,0.5-0.8,0.7
			c-0.5,0.4-0.9,0.9-1.4,1.3c-0.5,0.5-1.1,1-1.6,1.5c-0.6,0.5-1.1,1.1-1.7,1.6c-0.6,0.5-1.4,0.6-2,0.1c-0.4-0.4-0.8-0.8-1.3-1.2
			c-0.7-0.7-1.4-1.3-2.1-2c-0.5-0.4-0.9-0.9-1.4-1.3c-0.3-0.3-0.6-0.5-0.9-0.8c-0.1-0.1-0.1-0.1,0-0.1c0.1,0,0.2,0,0.4,0
			C-2483.1,2496-2481.1,2496-2479,2496z"/>
		<path class="st0" d="M-2479,2506c-2.1,0-4.1,0-6.2,0c-0.1,0-0.3,0-0.4-0.1c0,0,0,0-0.1,0c0,0,0,0,0,0c0.3-0.3,0.7-0.5,1-0.8
			c0.7-0.5,1.3-1,2-1.5c0.5-0.4,1.1-0.8,1.6-1.2c0.1-0.1,0.3-0.2,0.4-0.3c0.1,0,0.1,0,0.1,0c0.5,0.4,1,0.5,1.6,0.5
			c0.5,0,0.9-0.2,1.3-0.5c0.1,0,0.1-0.1,0.2,0c0.6,0.5,1.3,0.9,1.9,1.4c0.7,0.5,1.3,1,2,1.5c0.4,0.3,0.8,0.6,1.1,0.9c0,0,0,0,0,0
			c0,0,0,0-0.1,0c-0.1,0-0.3,0.1-0.4,0.1C-2474.9,2506-2476.9,2506-2479,2506z"/>
	</g>
</g>
</svg>
