<?xml version="1.0" encoding="utf-8"?>
<!-- Generator: Adobe Illustrator 19.0.0, SVG Export Plug-In . SVG Version: 6.00 Build 0)  -->
<svg version="1.1" id="Layer_1" xmlns="http://www.w3.org/2000/svg" xmlns:xlink="http://www.w3.org/1999/xlink" x="0px" y="0px"
	 viewBox="0 0 84.3 18" style="enable-background:new 0 0 84.3 18;" xml:space="preserve">
<style type="text/css">
	.st0{clip-path:url(#XMLID_137_);fill:#FFFFFF;}
	.st1{clip-path:url(#XMLID_137_);fill:none;stroke:#FFFFFF;stroke-width:0.401;stroke-linecap:round;stroke-linejoin:round;}
	.st2{clip-path:url(#XMLID_137_);fill:#ED1C2E;}
</style>
<g id="XMLID_29_">
	<defs>
		<rect id="XMLID_30_" x="0" y="0" width="90.8" height="17.2"/>
	</defs>
	<clipPath id="XMLID_137_">
		<use xlink:href="#XMLID_30_"  style="overflow:visible;"/>
	</clipPath>
	<path id="XMLID_94_" class="st0" d="M80.4,4.9c0-0.7,0.6-1.3,1.3-1.3c0.7,0,1.3,0.6,1.3,1.3c0,0.7-0.6,1.3-1.3,1.3
		C80.9,6.2,80.4,5.6,80.4,4.9 M82.7,4.9c0-0.6-0.5-1-1-1c-0.6,0-1,0.5-1,1c0,0.6,0.5,1,1,1C82.2,6,82.7,5.5,82.7,4.9 M82.3,5.6H82
		L81.6,5h-0.3v0.6h-0.3V4.2h0.7c0.1,0,0.3,0,0.4,0.1c0.1,0.1,0.2,0.2,0.2,0.4c0,0.3-0.1,0.4-0.4,0.4L82.3,5.6z M81.8,4.8
		c0.2,0,0.3,0,0.3-0.2c0-0.2-0.2-0.2-0.3-0.2h-0.3v0.4H81.8z"/>
	<path id="XMLID_93_" class="st0" d="M70.5,8.8L70.5,8.8L70.5,8.8h-2.3c-0.3,0-0.6,0.3-0.6,0.6c0,0.3,0.3,0.6,0.6,0.6h1.7v1.3
		c0,1.5-1.2,2.7-2.7,2.7c-0.7,0-1.4-0.3-1.9-0.8c-0.5-0.5-0.8-1.2-0.8-1.9V7.6c0-0.7,0.3-1.4,0.8-1.9c0.5-0.5,1.2-0.8,1.9-0.8
		c1,0,1.9,0.6,2.4,1.5c0.1,0.3,0.5,0.4,0.8,0.3c0.3-0.1,0.4-0.5,0.3-0.8c-0.6-1.3-2-2.1-3.4-2.1c-2.1,0-3.8,1.7-3.8,3.8v3.7
		c0,1,0.4,2,1.1,2.7c0.7,0.7,1.7,1.1,2.7,1.1c1,0,2-0.4,2.7-1.1c0.7-0.7,1.1-1.7,1.1-2.7V9.4C71,9.1,70.8,8.8,70.5,8.8"/>
	<path id="XMLID_92_" class="st1" d="M70.5,8.8L70.5,8.8L70.5,8.8h-2.3c-0.3,0-0.6,0.3-0.6,0.6c0,0.3,0.3,0.6,0.6,0.6h1.7v1.3
		c0,1.5-1.2,2.7-2.7,2.7c-0.7,0-1.4-0.3-1.9-0.8c-0.5-0.5-0.8-1.2-0.8-1.9V7.6c0-0.7,0.3-1.4,0.8-1.9c0.5-0.5,1.2-0.8,1.9-0.8
		c1,0,1.9,0.6,2.4,1.5c0.1,0.3,0.5,0.4,0.8,0.3c0.3-0.1,0.4-0.5,0.3-0.8c-0.6-1.3-2-2.1-3.4-2.1c-2.1,0-3.8,1.7-3.8,3.8v3.7
		c0,1,0.4,2,1.1,2.7c0.7,0.7,1.7,1.1,2.7,1.1c1,0,2-0.4,2.7-1.1c0.7-0.7,1.1-1.7,1.1-2.7V9.4C71,9.1,70.8,8.8,70.5,8.8z"/>
	<path id="XMLID_89_" class="st0" d="M49.4,10.1c0.6-0.1,1.1-0.4,1.5-0.8c0.6-0.6,0.9-1.4,0.9-2.2c0-0.8-0.3-1.6-0.9-2.2
		c-0.6-0.6-1.4-0.9-2.2-0.9h-4.1c-0.3,0-0.6,0.3-0.6,0.6c0,0,0,0.1,0,0.1v9.8c0,0.3,0.3,0.6,0.6,0.6c0.3,0,0.6-0.3,0.6-0.6v-4.2h2.8
		l2.7,4.5c0.2,0.3,0.5,0.4,0.8,0.2c0.3-0.2,0.4-0.5,0.2-0.8L49.4,10.1z M45.3,5.1h3.5c0.5,0,1,0.2,1.4,0.6C50.5,6,50.7,6.5,50.7,7
		c0,1.1-0.9,1.9-1.9,1.9h-3.5V5.1z"/>
	<path id="XMLID_86_" class="st1" d="M49.4,10.1c0.6-0.1,1.1-0.4,1.5-0.8c0.6-0.6,0.9-1.4,0.9-2.2c0-0.8-0.3-1.6-0.9-2.2
		c-0.6-0.6-1.4-0.9-2.2-0.9h-4.1c-0.3,0-0.6,0.3-0.6,0.6c0,0,0,0.1,0,0.1v9.8c0,0.3,0.3,0.6,0.6,0.6c0.3,0,0.6-0.3,0.6-0.6v-4.2h2.8
		l2.7,4.5c0.2,0.3,0.5,0.4,0.8,0.2c0.3-0.2,0.4-0.5,0.2-0.8L49.4,10.1z M45.3,5.1h3.5c0.5,0,1,0.2,1.4,0.6C50.5,6,50.7,6.5,50.7,7
		c0,1.1-0.9,1.9-1.9,1.9h-3.5V5.1z"/>
	<path id="XMLID_83_" class="st0" d="M81,14.2l-4-9.9c-0.1-0.2-0.3-0.4-0.6-0.4c-0.2,0-0.5,0.1-0.6,0.4l-4,9.9
		c-0.1,0.3,0,0.6,0.3,0.8c0.3,0.1,0.6,0,0.8-0.3l0.9-2.2c0,0,0.1,0,0.1,0H79l0.9,2.2c0.1,0.3,0.5,0.4,0.8,0.3
		C81,14.8,81.1,14.5,81,14.2 M74.3,11.3L76.4,6l2.1,5.3H74.3z"/>
	<path id="XMLID_80_" class="st1" d="M81,14.2l-4-9.9c-0.1-0.2-0.3-0.4-0.6-0.4c-0.2,0-0.5,0.1-0.6,0.4l-4,9.9
		c-0.1,0.3,0,0.6,0.3,0.8c0.3,0.1,0.6,0,0.8-0.3l0.9-2.2c0,0,0.1,0,0.1,0H79l0.9,2.2c0.1,0.3,0.5,0.4,0.8,0.3
		C81,14.8,81.1,14.5,81,14.2z M74.3,11.3L76.4,6l2.1,5.3H74.3z"/>
	<path id="XMLID_77_" class="st0" d="M62.3,14.2l-4-9.9C58.3,4,58,3.9,57.8,3.9c-0.2,0-0.5,0.1-0.6,0.4l-4,9.9
		c-0.1,0.3,0,0.6,0.3,0.8c0.3,0.1,0.6,0,0.8-0.3l0.9-2.2c0,0,0.1,0,0.1,0h5.1l0.9,2.2c0.1,0.3,0.5,0.4,0.8,0.3
		C62.3,14.8,62.5,14.5,62.3,14.2 M55.7,11.3L57.8,6l2.1,5.3H55.7z"/>
	<path id="XMLID_74_" class="st1" d="M62.3,14.2l-4-9.9C58.3,4,58,3.9,57.8,3.9c-0.2,0-0.5,0.1-0.6,0.4l-4,9.9
		c-0.1,0.3,0,0.6,0.3,0.8c0.3,0.1,0.6,0,0.8-0.3l0.9-2.2c0,0,0.1,0,0.1,0h5.1l0.9,2.2c0.1,0.3,0.5,0.4,0.8,0.3
		C62.3,14.8,62.5,14.5,62.3,14.2z M55.7,11.3L57.8,6l2.1,5.3H55.7z"/>
	<path id="XMLID_71_" class="st0" d="M42.9,14.2l-4-9.9c-0.1-0.2-0.3-0.4-0.6-0.4c-0.2,0-0.5,0.1-0.6,0.4l-4,9.9
		c-0.1,0.3,0,0.6,0.3,0.8c0.3,0.1,0.6,0,0.8-0.3l0.9-2.2c0,0,0.1,0,0.1,0H41l0.9,2.2c0.1,0.3,0.5,0.4,0.8,0.3
		C42.9,14.8,43.1,14.5,42.9,14.2 M36.2,11.3L38.4,6l2.1,5.3H36.2z"/>
	<path id="XMLID_68_" class="st1" d="M42.9,14.2l-4-9.9c-0.1-0.2-0.3-0.4-0.6-0.4c-0.2,0-0.5,0.1-0.6,0.4l-4,9.9
		c-0.1,0.3,0,0.6,0.3,0.8c0.3,0.1,0.6,0,0.8-0.3l0.9-2.2c0,0,0.1,0,0.1,0H41l0.9,2.2c0.1,0.3,0.5,0.4,0.8,0.3
		C42.9,14.8,43.1,14.5,42.9,14.2z M36.2,11.3L38.4,6l2.1,5.3H36.2z"/>
	<path id="XMLID_67_" class="st0" d="M32.2,8.8L32.2,8.8L32.2,8.8h-2.3c-0.3,0-0.6,0.3-0.6,0.6c0,0.3,0.3,0.6,0.6,0.6h1.7v1.3
		c0,1.5-1.2,2.7-2.7,2.7c-0.7,0-1.4-0.3-1.9-0.8c-0.5-0.5-0.8-1.2-0.8-1.9V7.6c0-0.7,0.3-1.4,0.8-1.9c0.5-0.5,1.2-0.8,1.9-0.8
		c1,0,1.9,0.6,2.4,1.5c0.1,0.3,0.5,0.4,0.8,0.3s0.4-0.5,0.3-0.8c-0.6-1.3-2-2.1-3.4-2.1c-2.1,0-3.8,1.7-3.8,3.8v3.7
		c0,1,0.4,2,1.1,2.7c0.7,0.7,1.7,1.1,2.7,1.1s2-0.4,2.7-1.1c0.7-0.7,1.1-1.7,1.1-2.7V9.4C32.8,9.1,32.5,8.8,32.2,8.8"/>
	<path id="XMLID_66_" class="st1" d="M32.2,8.8L32.2,8.8L32.2,8.8h-2.3c-0.3,0-0.6,0.3-0.6,0.6c0,0.3,0.3,0.6,0.6,0.6h1.7v1.3
		c0,1.5-1.2,2.7-2.7,2.7c-0.7,0-1.4-0.3-1.9-0.8c-0.5-0.5-0.8-1.2-0.8-1.9V7.6c0-0.7,0.3-1.4,0.8-1.9c0.5-0.5,1.2-0.8,1.9-0.8
		c1,0,1.9,0.6,2.4,1.5c0.1,0.3,0.5,0.4,0.8,0.3s0.4-0.5,0.3-0.8c-0.6-1.3-2-2.1-3.4-2.1c-2.1,0-3.8,1.7-3.8,3.8v3.7
		c0,1,0.4,2,1.1,2.7c0.7,0.7,1.7,1.1,2.7,1.1s2-0.4,2.7-1.1c0.7-0.7,1.1-1.7,1.1-2.7V9.4C32.8,9.1,32.5,8.8,32.2,8.8z"/>
	<path id="XMLID_65_" class="st2" d="M19.7,16.1H3.4c-0.7,0-1.2-0.5-1.2-1.2V3.7c0-0.7,0.5-1.2,1.2-1.2h16.3c0.7,0,1.2,0.5,1.2,1.2
		v11.2C20.9,15.6,20.4,16.1,19.7,16.1"/>
	<path id="XMLID_62_" class="st0" d="M19.7,2.7c0.5,0,1,0.4,1,1v11.2c0,0.5-0.4,1-1,1H3.4c-0.5,0-1-0.4-1-1V3.7c0-0.5,0.4-1,1-1
		H19.7 M19.7,2.2H3.4c-0.8,0-1.5,0.7-1.5,1.5v11.2c0,0.8,0.7,1.5,1.5,1.5h16.3c0.8,0,1.5-0.7,1.5-1.5V3.7
		C21.2,2.8,20.5,2.2,19.7,2.2"/>
	<path id="XMLID_56_" class="st0" d="M8.1,11.7h10.4V15H8.1V11.7z M8.1,11.1h10.4L18,8.5H7.3L8.1,11.1z M7.1,8h10.7L17,6.2H6L7.1,8z
		 M5.7,5.6h10.6l-1.4-0.9H5L5.7,5.6z M4.6,4.4h10.1l-1.4-0.5H3.8L4.6,4.4z"/>
	<path id="XMLID_55_" class="st0" d="M55.1,21.2h-0.4v-0.3c-0.1,0.1-0.1,0.1-0.3,0.2c-0.2,0.1-0.5,0.1-0.7,0.1
		c-1.2,0-1.4-0.9-1.4-1.7c0-0.5,0-1.1,0.4-1.5c0.4-0.4,0.9-0.4,1.1-0.4c0.8,0,1.3,0.4,1.3,1.2h-0.5c0-0.7-0.5-0.9-0.8-0.9
		c-0.8,0-0.9,0.8-0.9,1.7c0,0.7,0.1,1.4,0.9,1.4c0.2,0,0.5-0.1,0.6-0.2c0.3-0.2,0.3-0.4,0.3-0.6v-0.4h-0.8v-0.3h1.2V21.2z"/>
	<path id="XMLID_52_" class="st0" d="M57.7,21.2h-0.3c-0.2,0-0.2-0.1-0.2-0.3c-0.1,0.1-0.1,0.1-0.3,0.2c-0.2,0.1-0.3,0.1-0.5,0.1
		c-0.6,0-0.7-0.4-0.7-0.7c0-0.1,0-0.2,0.1-0.3c0.2-0.4,0.6-0.4,1-0.5l0.4,0v-0.2c0-0.2,0-0.5-0.5-0.5c-0.1,0-0.3,0-0.4,0.1
		c-0.1,0.1-0.1,0.3-0.1,0.4h-0.4c0-0.1,0-0.3,0.1-0.4c0.1-0.3,0.5-0.4,0.9-0.4c0.2,0,0.5,0,0.7,0.2c0.2,0.2,0.2,0.4,0.2,0.6v1.4
		c0,0.1,0,0.2,0,0.2C57.6,21.1,57.7,21.1,57.7,21.2L57.7,21.2z M57.2,19.9l-0.1,0c-0.4,0-0.6,0.1-0.7,0.2c-0.2,0.1-0.2,0.2-0.2,0.4
		c0,0.3,0.2,0.5,0.5,0.5c0.1,0,0.3,0,0.4-0.1c0.2-0.1,0.2-0.3,0.2-0.5V19.9z"/>
	<path id="XMLID_51_" class="st0" d="M58.7,21.2h-0.4v-2.5h0.4V19c0.1-0.1,0.3-0.4,0.6-0.4c0.2,0,0.2,0,0.3,0.1v0.4
		c-0.1-0.1-0.2-0.1-0.4-0.1c-0.1,0-0.1,0-0.2,0c-0.2,0.1-0.2,0.3-0.3,0.5V21.2z"/>
	<path id="XMLID_48_" class="st0" d="M61.8,21.2h-0.3c-0.2,0-0.2-0.1-0.2-0.3c-0.1,0.1-0.1,0.1-0.3,0.2c-0.2,0.1-0.3,0.1-0.5,0.1
		c-0.6,0-0.7-0.4-0.7-0.7c0-0.1,0-0.2,0.1-0.3c0.2-0.4,0.6-0.4,1-0.5l0.4,0v-0.2c0-0.2,0-0.5-0.5-0.5c-0.1,0-0.3,0-0.4,0.1
		c-0.1,0.1-0.1,0.3-0.1,0.4h-0.4c0-0.1,0-0.3,0.1-0.4c0.1-0.3,0.5-0.4,0.9-0.4c0.2,0,0.5,0,0.7,0.2c0.2,0.2,0.2,0.4,0.2,0.6v1.4
		c0,0.1,0,0.2,0,0.2C61.8,21.1,61.8,21.1,61.8,21.2L61.8,21.2z M61.3,19.9l-0.1,0c-0.4,0-0.6,0.1-0.7,0.2c-0.2,0.1-0.2,0.2-0.2,0.4
		c0,0.3,0.2,0.5,0.5,0.5c0.1,0,0.3,0,0.4-0.1c0.2-0.1,0.2-0.3,0.2-0.5V19.9z"/>
	<path id="XMLID_45_" class="st0" d="M64.4,18.7v2.1c0,0.3,0,0.8-0.2,1.1c-0.2,0.3-0.6,0.4-0.9,0.4c-0.6,0-0.8-0.3-0.8-0.3
		c-0.1-0.2-0.1-0.4-0.1-0.5h0.4c0,0.1,0,0.4,0.3,0.5c0.1,0,0.2,0.1,0.3,0.1c0.1,0,0.3,0,0.5-0.2c0.2-0.2,0.2-0.4,0.2-0.6l0-0.2
		c-0.1,0.1-0.3,0.3-0.8,0.3c-0.1,0-0.3,0-0.5-0.1c-0.4-0.2-0.5-0.6-0.5-1.1c0-0.3,0.1-0.7,0.2-0.9c0.2-0.3,0.5-0.4,0.8-0.4
		c0.4,0,0.6,0.2,0.7,0.3v-0.3H64.4z M64,19.6c0-0.2,0-0.3-0.1-0.5c-0.1-0.1-0.3-0.2-0.5-0.2c-0.1,0-0.2,0-0.3,0.1
		c-0.3,0.2-0.3,0.6-0.3,0.9c0,0.1,0,0.2,0,0.4c0,0.1,0.1,0.6,0.6,0.6c0.2,0,0.3-0.1,0.5-0.2c0.2-0.1,0.2-0.3,0.2-0.5V19.6z"/>
	<path id="XMLID_42_" class="st0" d="M67,20.4c0,0.6-0.6,0.8-1,0.8c-0.1,0-0.5,0-0.8-0.3C65.1,20.8,65,20.5,65,20
		c0-0.8,0.3-1.4,1.1-1.4c0.8,0,1,0.5,1,1.3h-1.6c0,0.3,0,1,0.6,1c0.1,0,0.5-0.1,0.6-0.5H67z M66.6,19.7c0-0.2,0-0.7-0.6-0.7
		c-0.4,0-0.6,0.3-0.7,0.7H66.6z"/>
	<path id="XMLID_39_" class="st0" d="M69,21.2v-3.5h1.2c0.4,0,0.8,0,1.2,0.4c0.2,0.3,0.4,0.7,0.4,1.4c0,0.9-0.3,1.3-0.5,1.4
		c-0.4,0.3-1,0.3-1.4,0.3H69z M69.4,20.8h0.5c0.3,0,0.7,0,1-0.3c0.3-0.3,0.3-0.8,0.3-1.1c0-0.3,0-0.8-0.3-1.1C70.7,18,70.3,18,70,18
		h-0.6V20.8z"/>
	<path id="XMLID_36_" class="st0" d="M73.3,21.2c-1,0-1.1-0.8-1.1-1.3c0-0.4,0-1.3,1.1-1.3c1,0,1.1,0.8,1.1,1.2
		C74.4,20.2,74.4,21.2,73.3,21.2 M73.3,18.9c-0.6,0-0.7,0.8-0.7,1c0,0.4,0,1,0.7,1c0.5,0,0.6-0.4,0.6-1.1
		C73.9,19.3,73.8,18.9,73.3,18.9"/>
	<path id="XMLID_33_" class="st0" d="M75.8,21.2c-1,0-1.1-0.8-1.1-1.3c0-0.4,0-1.3,1.1-1.3c1,0,1.1,0.8,1.1,1.2
		C77,20.2,76.9,21.2,75.8,21.2 M75.9,18.9c-0.6,0-0.7,0.8-0.7,1c0,0.4,0,1,0.7,1c0.5,0,0.6-0.4,0.6-1.1
		C76.5,19.3,76.3,18.9,75.9,18.9"/>
	<path id="XMLID_32_" class="st0" d="M77.9,21.2h-0.4v-2.5h0.4V19c0.1-0.1,0.3-0.4,0.6-0.4c0.2,0,0.2,0,0.3,0.1v0.4
		c-0.1-0.1-0.2-0.1-0.4-0.1c-0.1,0-0.1,0-0.2,0c-0.2,0.1-0.2,0.3-0.3,0.5V21.2z"/>
	<path id="XMLID_31_" class="st0" d="M79.6,20c-0.2-0.1-0.6-0.2-0.6-0.6c0-0.5,0.4-0.7,0.9-0.7c0.2,0,0.5,0.1,0.6,0.2
		c0.2,0.2,0.2,0.5,0.2,0.6h-0.4c0-0.1,0-0.1,0-0.2c-0.1-0.2-0.2-0.3-0.4-0.3c-0.3,0-0.5,0.2-0.5,0.4c0,0.3,0.3,0.3,0.5,0.4l0.2,0
		c0.2,0.1,0.3,0.1,0.5,0.2c0,0,0.2,0.2,0.2,0.5c0,0.2-0.1,0.7-0.9,0.7c-0.4,0-1-0.1-0.9-0.8h0.4c0,0.2,0,0.5,0.5,0.5
		c0.1,0,0.5,0,0.5-0.4c0-0.3-0.2-0.4-0.5-0.5L79.6,20z"/>
</g>
</svg>
