<?xml version="1.0" encoding="utf-8"?>
<!-- Generator: Adobe Illustrator 19.0.0, SVG Export Plug-In . SVG Version: 6.00 Build 0)  -->
<svg version="1.1" id="Back_in_time" xmlns="http://www.w3.org/2000/svg" xmlns:xlink="http://www.w3.org/1999/xlink" x="0px"
	 y="0px" viewBox="-2489 2491 20 20" style="enable-background:new -2489 2491 20 20;" xml:space="preserve">
<style type="text/css">
	.st0{fill:#FFFFFF;}
</style>
<path class="st0" d="M-2478,2492.8c-4.4,0-8.1,3.6-8.2,8v0.2h-2.4l3.6,3.9l3.5-3.9h-2.7v-0.2c0.1-3.3,2.8-5.9,6.1-5.9
	c3.4,0,6.1,2.8,6.1,6.1s-2.7,6.1-6.1,6.1c-1.4,0-2.6-0.4-3.6-1.2l-1.4,1.5c1.4,1.1,3.1,1.7,5,1.7c4.5,0,8.2-3.7,8.2-8.2
	S-2473.5,2492.8-2478,2492.8z M-2479,2496v5c0,0.1,0,0.3,0.1,0.4c0.1,0.1,0.1,0.2,0.2,0.3l3.2,3.2c0.3-0.2,0.6-0.4,0.8-0.6l-2.3-2.3
	v-6H-2479z"/>
</svg>
