<?xml version="1.0" encoding="utf-8"?>
<!-- Generator: Adobe Illustrator 19.0.0, SVG Export Plug-In . SVG Version: 6.00 Build 0)  -->
<svg version="1.1" id="Link" xmlns="http://www.w3.org/2000/svg" xmlns:xlink="http://www.w3.org/1999/xlink" x="0px" y="0px"
	 viewBox="-2489 2491 20 20" style="enable-background:new -2489 2491 20 20;" xml:space="preserve">
<style type="text/css">
	.st0{fill:#FFFFFF;}
</style>
<path class="st0" d="M-2481.1,2505.7l-0.8,0.8c-0.7,0.7-1.8,0.7-2.5,0c-0.3-0.3-0.5-0.8-0.5-1.3c0-0.5,0.2-0.9,0.5-1.3l3-3
	c0.6-0.6,1.8-1.5,2.6-0.7c0.4,0.4,1,0.4,1.4,0c0.4-0.4,0.4-1,0-1.4c-1.4-1.4-3.6-1.2-5.4,0.7l-3,3c-0.7,0.7-1.1,1.7-1.1,2.7
	c0,1,0.4,1.9,1.1,2.7c0.7,0.7,1.7,1.1,2.7,1.1c1,0,1.9-0.4,2.7-1.1l0.8-0.8c0.4-0.4,0.4-1,0-1.4
	C-2480.1,2505.3-2480.8,2505.3-2481.1,2505.7z M-2472.1,2494.2c-1.5-1.5-3.7-1.6-5.1-0.2l-1,1c-0.4,0.4-0.4,1,0,1.4
	c0.4,0.4,1,0.4,1.4,0l1-1c0.7-0.7,1.7-0.4,2.3,0.2c0.3,0.3,0.5,0.8,0.5,1.3c0,0.5-0.2,0.9-0.5,1.3l-3.2,3.2
	c-1.5,1.4-2.1,0.8-2.4,0.5c-0.4-0.4-1-0.4-1.4,0c-0.4,0.4-0.4,1,0,1.4c0.7,0.7,1.4,1,2.2,1c1,0,2-0.5,3-1.5l3.2-3.2
	c0.7-0.7,1.1-1.7,1.1-2.7C-2471,2495.9-2471.4,2494.9-2472.1,2494.2z"/>
</svg>
