<?xml version="1.0" encoding="utf-8"?>
<!-- Generator: Adobe Illustrator 19.0.0, SVG Export Plug-In . SVG Version: 6.00 Build 0)  -->
<svg version="1.1" id="Layer_1" xmlns="http://www.w3.org/2000/svg" xmlns:xlink="http://www.w3.org/1999/xlink" x="0px" y="0px"
	 viewBox="0 0 674.3 80.5" style="enable-background:new 0 0 674.3 80.5;" xml:space="preserve">
<style type="text/css">
	.st0{fill:#F2A41E;}
	.st1{font-family:'ACaslonPro-Regular';}
	.st2{font-size:73.5466px;}
	.st3{font-size:54px;}
	.st4{fill:#278BCB;}
	.st5{fill:#F9E47F;}
	.st6{fill:#F1A41F;}
</style>
<text id="XMLID_4_" transform="matrix(1 0 0 1 437.2928 55.5244)"><tspan x="0" y="0" class="st0 st1 st2">pr </tspan><tspan x="81.6" y="0" class="st0 st1 st3"> </tspan><tspan x="95.3" y="0" class="st0 st1 st2">mise</tspan></text>
<g id="XMLID_5_">
	<path id="XMLID_6_" class="st4" d="M12.9,46.3c0,5.5,2.5,6.5,3.8,6.5c1.7,0,3.8-0.3,4.9-1c0.4-0.2,0.7-0.1,0.9,0.1l0.4,0.7
		c0.2,0.3,0.1,0.6-0.1,0.8c-0.7,0.7-3.8,2.9-8.2,2.9c-3.6,0-7.1-3.5-7.1-6.3c0-3,0.2-9.5,0.2-10.5V38c0-1.3,0.1-6.3,0.1-9.4H3.3
		c-0.7,0-1.1-0.3-1.1-0.9c0-0.6,0.4-0.8,1.3-1.3c1.8-1,7.4-6.7,8.4-9.2c0.2-0.6,0.6-0.7,1-0.7c0.6,0,0.7,0.5,0.7,1.1l-0.4,7.2h10.2
		c0.4,0,0.7,0.4,0.5,0.7L23.3,28c-0.1,0.4-0.2,0.6-0.7,0.6h-9.5c-0.1,3.4-0.2,7-0.2,10.4V46.3z"/>
	<path id="XMLID_8_" class="st4" d="M31.1,15.4c0-4.5-0.9-5.3-3.5-6.2l-1.2-0.4c-0.4-0.1-0.5-0.2-0.5-0.4V7.7c0-0.3,0.2-0.4,0.9-0.7
		l7.6-4c0.6-0.3,1.1-0.6,1.7-0.6c0.4,0,0.7,0.6,0.6,1.8S36.4,20.4,36.4,24v4.7h0.4c2.6-3.1,6.8-4.8,10.1-4.8c3.1,0,5.2,1,7.3,2.9
		c3.3,3.1,3.2,6.8,3.2,10.8v4.2c0,4.1,0.1,8.7,0.1,10.1c0,0.9,1.2,1.1,2.7,1.1h1.3c0.6,0,0.8,0.1,0.8,0.7v1.1c0,0.6-0.1,0.9-0.6,0.9
		c-0.5,0-2.9-0.2-7.1-0.2c-3.6,0-6.3,0.2-6.9,0.2c-0.5,0-0.7-0.2-0.7-0.8v-1.2c0-0.4,0.1-0.6,0.5-0.6h1.7c1.3,0,2.7-0.1,2.8-1.4
		c0.1-1,0-4.9,0-7.3v-6c0-4.1-0.3-7.1-2.4-9c-1.5-1.4-3-2.1-4.9-2.1c-2.1,0-4.8,0.7-6.8,3.1c-0.7,0.8-1.5,2.3-1.5,3.6v16
		c0,2.4,0.2,3,1.6,3h2.2c0.5,0,0.8,0.1,0.8,0.6v1.2c0,0.5-0.1,0.8-0.6,0.8c-0.6,0-3.6-0.2-7-0.2c-3.7,0-6.5,0.2-7.1,0.2
		c-0.3,0-0.5-0.2-0.5-0.7v-1.3c0-0.5,0.3-0.6,1.1-0.6h1.5c1.2,0,2.3-0.3,2.4-1.2c0.2-1.4,0.2-9.5,0.2-14.3V15.4z"/>
	<path id="XMLID_10_" class="st4" d="M72,36c-0.1,0.7-0.2,1.8-0.2,3.5c0,7.2,4.6,12.7,10.4,12.7c4.5,0,7.6-2.6,8.9-5
		c0.1-0.3,0.4-0.4,0.7-0.4l1,0.5c0.2,0.1,0.4,0.3,0,1.1c-1.3,2.9-5.1,8-11.7,8c-4.2,0-8.8-1.3-11.5-5.2c-2.6-3.8-3.2-6.5-3.2-11.6
		c0-2.9,0.7-7.8,4.6-11.7c3.2-3.2,6.8-3.9,10.5-3.9c8.5,0,10.8,7.9,10.8,10.8c0,1-0.9,1.2-2.1,1.2H72z M83.7,33.8c1.4,0,2-0.4,2-1
		c0-1.7-0.9-6.5-5.7-6.5c-3.2,0-6.3,2.1-7.7,7.6H83.7z"/>
	<path id="XMLID_13_" class="st4" d="M120.1,34.7c0-1.8-0.5-2.8-2.6-4l-1.7-1c-0.5-0.2-0.5-0.4-0.5-0.7v-0.6c0-0.2,0.1-0.4,0.5-0.5
		l7.1-3.5c0.6-0.3,1.2-0.6,1.7-0.6c0.4,0,0.5,0.4,0.5,1.5l0.3,3.5h0.2c2-2.6,5.8-4.9,10.7-4.9c3.8,0,6.3,1.6,8.4,3.6
		c2.8,2.8,4,5.8,4,11.5c0,9.6-6.7,17.4-15.9,17.4c-2,0-5.1-0.3-7.4-1.3v15.5c0,2.1,0.5,2.4,1.6,2.4h3.2c0.6,0,0.7,0.3,0.7,0.7v1.2
		c0,0.4-0.1,0.7-0.7,0.7c-0.4,0-2.9-0.2-7.6-0.2c-4.3,0-6.8,0.2-7.4,0.2c-0.5,0-0.7-0.2-0.7-0.7v-1.3c0-0.4,0.1-0.7,0.9-0.7h2.9
		c1.2,0,1.4-0.7,1.5-1.8c0.2-1.6,0.2-5.6,0.2-12.8V34.7z M125.4,48.2c0,1.6,0.1,2.9,1.5,3.9c2.1,1.5,4.3,2,7.4,2
		c4.2,0,8.5-3.2,8.5-12.3c0-10.3-4.6-14.4-9.6-14.4c-3.1,0-6.1,1.8-7.9,4.7V48.2z"/>
	<path id="XMLID_16_" class="st4" d="M158.9,34.1c0-2.5-0.4-3.8-4.1-4.4c-0.5-0.1-0.7-0.2-0.7-0.5v-0.7c0-0.2,0.1-0.4,0.5-0.5
		c2.4-0.9,5.1-2.1,7.9-3.6c0.6-0.3,1-0.4,1.4-0.4c0.4,0,0.4,0.4,0.4,0.9c-0.1,1.2-0.1,5.9-0.1,12v8c0,2.9,0,5.5,0.1,6.3
		c0.1,1.4,0.4,1.9,1.2,1.9h3.4c0.6,0,0.7,0.2,0.7,0.7V55c0,0.5-0.1,0.7-0.7,0.7c-0.6,0-4-0.2-7.1-0.2c-4.3,0-7.1,0.2-7.9,0.2
		c-0.4,0-0.6-0.1-0.6-0.6v-1.5c0-0.4,0.2-0.6,0.7-0.6h3.6c0.8,0,1.1-0.3,1.2-1.5c0.1-2.2,0.1-4.5,0.1-6.7V34.1z M155.4,11.5
		c0-1.9,1.6-4.1,4.6-4.1c2.7,0,4,2.2,4,3.9c0,2-1.3,4.3-4.4,4.3C157.9,15.7,155.4,14,155.4,11.5z"/>
	<path id="XMLID_19_" class="st4" d="M183.4,46.3c0,5.5,2.5,6.5,3.8,6.5c1.7,0,3.8-0.3,4.9-1c0.4-0.2,0.7-0.1,0.9,0.1l0.4,0.7
		c0.2,0.3,0.1,0.6-0.1,0.8c-0.7,0.7-3.8,2.9-8.2,2.9c-3.6,0-7.1-3.5-7.1-6.3c0-3,0.2-9.5,0.2-10.5V38c0-1.3,0.1-6.3,0.1-9.4h-4.5
		c-0.7,0-1.1-0.3-1.1-0.9c0-0.6,0.4-0.8,1.3-1.3c1.8-1,7.4-6.7,8.4-9.2c0.2-0.6,0.6-0.7,1-0.7c0.6,0,0.7,0.5,0.7,1.1l-0.4,7.2H194
		c0.4,0,0.7,0.4,0.5,0.7l-0.7,2.6c-0.1,0.4-0.2,0.6-0.7,0.6h-9.5c-0.1,3.4-0.2,7-0.2,10.4V46.3z"/>
	<path id="XMLID_21_" class="st4" d="M206.9,46.3c0,5.5,2.5,6.5,3.8,6.5c1.7,0,3.8-0.3,4.9-1c0.4-0.2,0.7-0.1,0.9,0.1l0.4,0.7
		c0.2,0.3,0.1,0.6-0.1,0.8c-0.7,0.7-3.8,2.9-8.2,2.9c-3.6,0-7.1-3.5-7.1-6.3c0-3,0.2-9.5,0.2-10.5V38c0-1.3,0.1-6.3,0.1-9.4h-4.5
		c-0.7,0-1.1-0.3-1.1-0.9c0-0.6,0.4-0.8,1.3-1.3c1.8-1,7.4-6.7,8.4-9.2c0.2-0.6,0.6-0.7,1-0.7c0.6,0,0.7,0.5,0.7,1.1l-0.4,7.2h10.2
		c0.4,0,0.7,0.4,0.5,0.7l-0.7,2.6c-0.1,0.4-0.2,0.6-0.7,0.6h-9.5c-0.1,3.4-0.2,7-0.2,10.4V46.3z"/>
	<path id="XMLID_23_" class="st4" d="M222.7,54.3c-0.4-0.2-0.4-0.7-0.4-1l-1.3-7c-0.1-0.4,0.1-0.5,0.4-0.6l1-0.2
		c0.3-0.1,0.5,0.1,0.7,0.4l1.8,3.6c1.5,2.7,2.5,4.6,6.4,4.6c2.6,0,5.8-1.5,5.8-5c0-3.3-1.6-5.2-7.1-6.8c-4.3-1.3-8.7-3.5-8.7-9.3
		c0-5.1,4.8-9,10.3-9c3.5,0,5.4,0.9,6.8,1.5c1.1,0.5,1.2,0.9,1.3,1.3l1.1,5.1c0,0.3-0.1,0.5-0.5,0.7l-0.9,0.3
		c-0.3,0.1-0.4,0-0.7-0.4l-2.5-3.4c-0.9-1.4-2.3-2.9-5.1-2.9c-2.8,0-5.7,1.7-5.7,4.9c0,4.3,3.5,5.1,7.1,6.1c5.4,1.5,8.8,3.8,8.8,9.4
		c-0.1,6-4.9,9.7-11.2,9.7C226.5,56.4,223.6,54.9,222.7,54.3z"/>
	<path id="XMLID_25_" class="st4" d="M249.4,15.9c0-4.9-0.8-6-3.5-6.8l-0.7-0.2c-0.8-0.2-1-0.4-1-0.6V7.6c0-0.2,0.1-0.4,0.6-0.6
		c2.1-1,6-2.9,7.8-4c0.5-0.4,1.1-0.7,1.5-0.7c0.5,0,0.7,0.4,0.6,1.2c-0.1,0.6-0.1,9-0.1,15.5v8.5c2.4-2.3,6.5-3.7,10.1-3.7
		c6.5,0,13.5,5.2,13.5,15.7c0,8.6-6.9,16.7-15.3,16.7c-4.1,0-7-0.9-8.7-1.9l-2.9,1.6c-0.3,0.2-0.5,0.3-1,0.2l-0.9-0.2
		c-0.3-0.1-0.4-0.2-0.3-0.6c0.1-1,0.1-7.1,0.1-12.5V15.9z M254.7,39.7c0,6.1,0.2,8.3,1.1,10.7c0.7,1.8,3.8,3.7,7,3.7
		c4.4,0,9.9-3,9.9-12.7c0-7.1-3.8-13.9-11-13.9c-2.7,0-5.4,1-7,2.6V39.7z"/>
	<path id="XMLID_28_" class="st4" d="M311.8,40.6c0,3.5,0,7.1,0.1,8.7c0.2,2.3,1,2.6,1.9,2.6c0.4,0,1.5,0,2.4-0.2
		c0.6-0.1,0.8,0,0.9,0.3l0.2,1c0.1,0.4-0.1,0.6-0.4,0.7l-7.7,2.6c-0.4,0.1-0.9,0.3-1.5,0.3c-0.3,0-0.6-0.1-0.7-0.9l-0.6-4.3h-0.1
		c-2.1,2.9-6.3,5.1-10,5.1c-2.1,0-4.5-0.2-6.9-3.4c-3-3.9-2.9-6.3-2.9-14.4V30c-0.1-2.1-1.1-2.6-2.8-2.8c-1.3-0.1-1.6-0.1-1.6-0.5
		v-1.3c0-0.4,0.1-0.6,0.8-0.6h6.5c0.4,0,0.7-0.1,1-0.1c0.3,0,0.6-0.1,0.8-0.1c0.5,0,0.9,0.4,0.8,0.9c-0.1,0.7-0.3,4.1-0.3,8.5v5.3
		c0,2.9-0.7,7.6,1.6,11c1.8,2.6,3.9,2.8,5.9,2.8c2,0,4.9-1.9,6.3-3.7c0.3-0.4,0.7-1.3,0.7-2V29.8c-0.1-2.1-1.3-2.4-3.2-2.6
		c-1.3,0-1.6-0.1-1.6-0.5v-1.2c0-0.6,0.1-0.7,0.9-0.7h6.8c0.5,0,0.9-0.1,1.2-0.1c0.4,0,0.7-0.1,0.9-0.1c0.4,0,0.7,0.4,0.7,0.7
		c-0.1,0.7-0.4,2.6-0.4,9.8V40.6z"/>
	<path id="XMLID_30_" class="st4" d="M325.5,36c0-3.8-0.6-4.5-2.6-5.6l-1.4-0.7c-0.4-0.1-0.6-0.2-0.6-0.5v-0.4
		c0-0.3,0.1-0.4,0.6-0.7l7.3-3.8c0.4-0.2,0.7-0.3,1-0.3c0.4,0,0.5,0.4,0.5,0.9l0.4,5.2h0.3c2.2-3.4,5.7-6.4,8.8-6.4
		c2.5,0,3.8,1.5,3.8,3.2c0,2.1-1.8,3.6-3.1,3.6c-0.8,0-1.5-0.3-2.1-0.6c-0.6-0.4-1.5-0.6-2.4-0.6c-1.2,0-3.1,0.7-4.3,3.1
		c-0.4,0.8-0.7,2.1-0.7,2.4v15.3c0,2.3,0.5,3,2.1,3h3.5c0.4,0,0.5,0.2,0.5,0.7v1.3c0,0.4-0.1,0.7-0.4,0.7c-0.4,0-3.8-0.2-7.8-0.2
		c-4.6,0-7.6,0.2-8.1,0.2c-0.3,0-0.4-0.1-0.4-0.7v-1.2c0-0.5,0.1-0.7,0.8-0.7h2.9c1.1,0,1.6-0.4,1.6-1.4c0.1-2.4,0.1-5,0.1-8.8V36z"
		/>
	<path id="XMLID_32_" class="st4" d="M348.3,73.2c-2.6-1.6-3.8-3.5-3.8-6c0-4.1,4.2-7.3,7.7-8.8v-0.3c-3.1-0.7-4.9-2.9-4.9-5.1
		c0-3.5,4-6,6.6-7v-0.1c-2.9-1.3-6.8-4.6-6.8-11.2c0-4.8,4.3-10.7,12.6-10.7c5.6,0,8.5,3.4,9.3,4.3c2-1.4,4.5-2.9,6.9-2.9
		c2.4,0,3.6,1.6,3.5,3.1c0,1.4-1.2,2.7-2.9,2.7c-1.2,0-2-0.6-2.6-1.1c-0.4-0.3-1-0.7-1.5-0.7c-0.5,0-1.4,0-2.4,0.4
		c0.6,1.5,1.1,3.1,1.1,5.6c0,2.9-0.8,5.7-2.7,7.9c-1.9,2.1-6.1,3.7-8.5,3.7c-1.6,0-2.6-0.1-3.8-0.4c-1.5,0.6-3.9,2.1-3.9,4.1
		c0,3,3.7,2.8,8.6,2.5c6-0.3,9.7,0.4,12.7,2.6c3.2,2.4,3.5,5.3,3.6,7.1c0,3.5-1.3,6.3-4.9,9c-1.9,1.4-6.3,3.5-12.6,3.5
		C356,75.5,351.8,75.2,348.3,73.2z M372.5,65.6c0-4.3-3.3-7.6-10.7-7.1l-7.1,0.5c-2.3,0.6-5.9,3.1-5.9,7.1c0,1.8,1.4,4,2.9,5.1
		c2.4,1.7,5.1,2.1,10.3,2.1C364.8,73.2,372.9,71.3,372.5,65.6z M365.7,34.3c0-3.2-0.7-5.1-2-6.6c-1-1-2.4-1.6-3.5-1.6
		c-1.7,0-3.5,0.3-5.2,2.1c-2.4,2.5-2.6,5.9-2.6,8.7c0,2.5,0.8,4.8,2.4,6.4c1.3,1.3,2.6,1.8,4.4,1.8C364.1,45,365.7,38.9,365.7,34.3z
		"/>
	<path id="XMLID_36_" class="st4" d="M386.4,15.4c0-4.5-0.9-5.3-3.5-6.2l-1.3-0.4c-0.4-0.1-0.5-0.2-0.5-0.4V7.7
		c0-0.3,0.2-0.4,0.9-0.7l7.6-4c0.6-0.3,1.1-0.6,1.7-0.6c0.4,0,0.7,0.6,0.6,1.8s-0.2,16.2-0.2,19.9v4.7h0.4c2.6-3.1,6.8-4.8,10.1-4.8
		c3.1,0,5.2,1,7.3,2.9c3.3,3.1,3.2,6.8,3.2,10.8v4.2c0,4.1,0.1,8.7,0.1,10.1c0,0.9,1.2,1.1,2.7,1.1h1.2c0.6,0,0.8,0.1,0.8,0.7v1.1
		c0,0.6-0.1,0.9-0.6,0.9c-0.5,0-2.9-0.2-7.1-0.2c-3.6,0-6.3,0.2-6.9,0.2c-0.5,0-0.7-0.2-0.7-0.8v-1.2c0-0.4,0.1-0.6,0.5-0.6h1.7
		c1.2,0,2.7-0.1,2.8-1.4c0.1-1,0-4.9,0-7.3v-6c0-4.1-0.3-7.1-2.4-9c-1.5-1.4-3-2.1-4.9-2.1c-2.1,0-4.8,0.7-6.8,3.1
		c-0.7,0.8-1.5,2.3-1.5,3.6v16c0,2.4,0.2,3,1.6,3h2.2c0.5,0,0.8,0.1,0.8,0.6v1.2c0,0.5-0.1,0.8-0.6,0.8c-0.6,0-3.6-0.2-7-0.2
		c-3.7,0-6.5,0.2-7.1,0.2c-0.3,0-0.5-0.2-0.5-0.7v-1.3c0-0.5,0.3-0.6,1.1-0.6h1.5c1.2,0,2.3-0.3,2.4-1.2c0.2-1.4,0.2-9.5,0.2-14.3
		V15.4z"/>
</g>
<path id="XMLID_2_" class="st5" d="M507,27.4c0,0,2.5-5.7,1.3-8.3c3.5,0.2,6.7,4.8,6.7,4.8s2.7-2.8,2.2-5.4c2.5,0,3.4,1.7,4.3,5.9
	c3.5,1.3,7.5-4.2,7.5-4.2s2.7,4.3-1.7,8.3c4.7,2.2,10.2-2.5,10.2-2.5s-2,8.2-5.3,8.3c2,0.7,5.2,3,7.7,0c2.2-3.8,0.5,7.7-6.5,6.5
	c3.2,3.4,7.4,5.5,7.4,5.5s-3.2,3.2-8.1,1.7c-1.3,2.7,3.7,6.8,3.7,6.8s-4.2,2.3-7.5-1.8c-4-1.3-1.8,9-1.8,9s-4.5-2.8-5.3-4.2
	c-0.8-1.3-3.7,4.8-2.5,6s-4.3-0.7-3.7-7.3c-2.2-0.8-6.5,5.3-6.5,5.3s-3.8-2.8-1-7.5c-1.8-0.7-6-0.3-7.3,1.3
	c-1.3-2.3-1.6-4.3,3.5-6.5c-1.2-2.5-8-4.2-7.8-1.7c-0.4-1.7-0.8-5,5.3-5.8c-1.2-2.3-4.3-5.2-5.9-5.2c-1.3,0.8,1.9-5,7.4-2.7
	c0-3.7-3.8-6.5-4.3-6.8C499.8,25.4,502,24.7,507,27.4z"/>
<circle id="XMLID_3_" class="st6" cx="518" cy="40.2" r="14.4"/>
</svg>
