<?xml version="1.0" encoding="utf-8"?>
<!-- Generator: Adobe Illustrator 19.0.0, SVG Export Plug-In . SVG Version: 6.00 Build 0)  -->
<svg version="1.1" id="Layer_1" xmlns="http://www.w3.org/2000/svg" xmlns:xlink="http://www.w3.org/1999/xlink" x="0px" y="0px"
	 viewBox="-474 226 50 50" style="enable-background:new -474 226 50 50;" xml:space="preserve">
<style type="text/css">
	.st0{fill:#C1A482;}
</style>
<g id="Fj1aLy.tif">
	<g id="XMLID_1_">
		<path id="XMLID_16_" class="st0" d="M-473.6,263.6c0-0.2,0-0.3,0-0.6c0.2-0.5,0.6-0.8,1.1-0.8c0.3,0,0.5-0.2,0.8-0.2
			c1.9-0.5,3.5-1.6,5-2.9c1.6-1.6,2.9-3.4,3.7-5.3c0.3-1,0.2-1.6-0.8-2.1c-0.6-0.3-1.4-0.6-2.1-0.8c-1-0.3-1.8-0.6-2.4-1.4
			c-0.6-0.6-0.5-1.6,0.2-2.3s1.8-1.1,3.1-0.5c0.6,0.3,1.4,0.5,2.1,0.5c0.5,0,0.5-0.2,0.5-0.6c-0.2-2.3-0.3-4.5-0.2-6.8
			c0.2-1.9,0.5-3.7,1.6-5.3c2.1-3.5,5.1-5.5,9.2-6.1c0.6-0.2,1.3-0.2,1.8-0.2c0.6,0,1.4,0,2.1,0c0.2,0,0.3,0,0.5,0
			c1.3,0.2,2.6,0.5,3.9,1c2.3,1,4,2.3,5.5,4.2c0.8,1.1,1.4,2.3,1.8,3.4c0.3,1.4,0.5,2.7,0.5,4.2c0,1.8-0.2,3.7-0.2,5.5
			c0,0.3,0,0.5,0.3,0.5c0.6,0.2,1.4-0.2,2.1-0.3c0.8-0.5,1.8-0.5,2.6,0c1.4,0.6,1.8,2.1,0.5,3.2c-0.6,0.5-1.3,0.8-1.9,1.1
			s-1.4,0.5-2.3,0.8c-1,0.5-1.3,1.3-0.8,2.3c1,2.3,2.4,4.2,4.2,5.8c1.6,1.4,3.4,2.3,5.5,2.7c0.5,0.2,1,0.3,1.1,0.8
			c0.2,0.5,0,1-0.3,1.3c-0.6,0.6-1.4,1.1-2.3,1.3c-1.1,0.3-2.3,0.6-3.4,0.8c-0.3,0-0.5,0.2-0.5,0.5c-0.2,0.5-0.2,1-0.3,1.3
			c-0.3,1-0.6,1.3-1.8,1.3c-1-0.2-2.1-0.3-3.1-0.3c-1.3,0-2.7,0.2-3.9,0.8c-0.8,0.5-1.4,1-2.3,1.4c-1.8,1.3-3.7,2.1-6,2.1
			c-1.4,0-2.9-0.2-4.3-0.6c-1.3-0.5-2.4-1.3-3.4-2.1c-0.8-0.6-1.6-1.1-2.6-1.4c-1.3-0.3-2.6-0.5-4-0.2c-0.6,0.2-1.3,0.2-1.9,0.3
			c-0.8,0.2-1.3-0.3-1.4-1.1c-0.2-0.5-0.3-1.1-0.3-1.6c0-0.3-0.2-0.3-0.5-0.5c-1.4-0.3-2.9-0.5-4.2-1.1
			C-472.3,264.9-473.1,264.4-473.6,263.6z"/>
	</g>
</g>
</svg>
