<?xml version="1.0" encoding="utf-8"?>
<!-- Generator: Adobe Illustrator 19.0.0, SVG Export Plug-In . SVG Version: 6.00 Build 0)  -->
<svg version="1.1" id="Users" xmlns="http://www.w3.org/2000/svg" xmlns:xlink="http://www.w3.org/1999/xlink" x="0px" y="0px"
	 viewBox="-2489 2491 20 20" style="enable-background:new -2489 2491 20 20;" xml:space="preserve">
<style type="text/css">
	.st0{fill:#FFFFFF;}
</style>
<path class="st0" d="M-2473,2510.1c0-2.2-2.2-3.4-4.3-4.3c-2.1-0.9-2.8-1.7-2.8-3.3c0-1,0.6-0.7,0.9-2.5c0.1-0.8,0.7,0,0.8-1.7
	c0-0.7-0.3-0.9-0.3-0.9s0.2-1,0.2-1.8c0.1-0.8-0.4-2.6-2.3-3.1c-0.3-0.3-0.6-0.9,0.5-1.4c-2.2-0.1-2.8,1.1-4,1.9
	c-1,0.8-1.3,2-1.2,2.6c0.1,0.8,0.2,1.8,0.2,1.8s-0.3,0.2-0.3,0.9c0.1,1.7,0.7,1,0.8,1.7c0.3,1.8,0.9,1.5,0.9,2.5
	c0,1.6-0.2,2.2-2.3,3.1c-2.1,0.9-2.8,2.4-2.8,4.5c0,0.6,0,0.9,0,0.9h16C-2473,2511-2473,2510.8-2473,2510.1z M-2470.5,2504.4
	c-1.1-0.5-1.6-1-1.6-2.1c0-0.6,0.4-0.4,0.6-1.6c0.1-0.5,0.4,0,0.5-1.1c0-0.4-0.2-0.6-0.2-0.6s0.1-0.7,0.1-1.2
	c0.1-0.6-0.4-2.2-2.3-2.2c-1.9,0-2.3,1.6-2.3,2.2c0,0.5,0.1,1.2,0.1,1.2s-0.2,0.1-0.2,0.6c0.1,1.1,0.4,0.6,0.5,1.1
	c0.2,1.2,0.6,1,0.6,1.6c0,1.1-0.4,1.6-1.8,2.2c-0.1,0-0.1,0.1-0.2,0.1c1.6,0.7,4.2,1.9,4.8,4.4h2.6c0,0,0-1.9,0-2.3
	C-2469,2505.7-2469.3,2504.8-2470.5,2504.4z"/>
</svg>
