<?xml version="1.0" encoding="utf-8"?>
<!-- Generator: Adobe Illustrator 19.0.0, SVG Export Plug-In . SVG Version: 6.00 Build 0)  -->
<svg version="1.1" id="Layer_1" xmlns="http://www.w3.org/2000/svg" xmlns:xlink="http://www.w3.org/1999/xlink" x="0px" y="0px"
	 viewBox="0 0 50 50" style="enable-background:new 0 0 50 50;" xml:space="preserve">
<style type="text/css">
	.st0{fill:#55ACEE;}
</style>
<g id="XMLID_2_">
	<path id="XMLID_19_" class="st0" d="M20,31.3c-1.6-0.1-2.9-0.7-3.9-1.8c-0.5-0.6-0.9-1.3-1.2-2c0.4,0,0.8,0.1,1.2,0.1
		c0.4,0,0.8-0.1,1.2-0.2c-1.8-0.4-3.1-1.5-3.9-3.1C13.1,23.6,13,22.8,13,22c0.4,0.2,0.8,0.3,1.2,0.4c0.4,0.1,0.8,0.2,1.2,0.2
		C13.9,21.5,13,20,13,18.2c0-1,0.2-1.9,0.7-2.8c0,0,0.1,0.1,0.1,0.1c0.2,0.2,0.4,0.4,0.6,0.7c0.3,0.3,0.5,0.5,0.8,0.8
		c0.4,0.4,0.8,0.7,1.2,1c0.6,0.5,1.2,0.8,1.8,1.2c0.5,0.3,1.1,0.5,1.6,0.8c1.1,0.5,2.3,0.8,3.5,1c0.5,0.1,0.9,0.1,1.4,0.2
		c0.2,0,0.2,0,0.2-0.2c-0.2-1.3-0.1-2.5,0.5-3.6c0.3-0.6,0.8-1.1,1.3-1.6c0.8-0.7,1.7-1.1,2.7-1.3c1.1-0.2,2.2,0,3.2,0.4
		c0.6,0.3,1.1,0.6,1.6,1.1c0.1,0.1,0.1,0.1,0.2,0.1c0.8-0.2,1.7-0.4,2.4-0.8c0.3-0.1,0.5-0.3,0.8-0.4c0,0,0,0,0.1,0
		c-0.2,0.6-0.5,1.2-0.9,1.7c-0.4,0.5-0.9,0.9-1.4,1.3c1-0.1,2.1-0.4,3-0.8c0,0,0,0,0,0c-0.1,0.1-0.2,0.3-0.3,0.4
		c-0.4,0.5-0.8,1-1.3,1.4c-0.3,0.3-0.7,0.6-1,0.9c-0.1,0.1-0.1,0.1-0.1,0.3c0,0.2,0,0.4,0,0.6c0,0.9-0.1,1.8-0.3,2.7
		c-0.2,1.2-0.6,2.4-1.1,3.5c-0.4,0.8-0.8,1.6-1.3,2.4c-0.4,0.6-0.8,1.2-1.3,1.7c-0.5,0.6-1,1.1-1.6,1.6c-0.7,0.6-1.4,1.1-2.1,1.5
		c-1.2,0.7-2.4,1.2-3.8,1.6c-0.8,0.2-1.6,0.4-2.4,0.4c-0.4,0-0.7,0.1-1.1,0.1c-0.3,0-0.6,0-0.8,0c-0.7,0-1.3,0-2-0.1
		c-1-0.1-2-0.4-2.9-0.7c-1.2-0.4-2.3-0.9-3.3-1.6c0,0,0,0-0.1-0.1c1.4,0.2,2.8,0,4.2-0.3C17.6,32.9,18.8,32.2,20,31.3z"/>
</g>
</svg>
