<?xml version="1.0" encoding="utf-8"?>
<!-- Generator: Adobe Illustrator 19.0.0, SVG Export Plug-In . SVG Version: 6.00 Build 0)  -->
<svg version="1.1" id="Layer_1" xmlns="http://www.w3.org/2000/svg" xmlns:xlink="http://www.w3.org/1999/xlink" x="0px" y="0px"
	 viewBox="-474 226 50 50" style="enable-background:new -474 226 50 50;" xml:space="preserve">
<style type="text/css">
	.st0{fill:#C1A482;}
</style>
<g id="XMLID_2_">
	<path id="XMLID_19_" class="st0" d="M-458.2,262.3c-2.9-0.2-5.3-1.3-7.2-3.3c-0.9-1.1-1.7-2.4-2.2-3.7c0.7,0,1.5,0.2,2.2,0.2
		s1.5-0.2,2.2-0.4c-3.3-0.7-5.7-2.8-7.2-5.7c-0.6-1.3-0.7-2.8-0.7-4.2c0.7,0.4,1.5,0.6,2.2,0.7c0.7,0.2,1.5,0.4,2.2,0.4
		c-2.8-2-4.4-4.8-4.4-8.1c0-1.8,0.4-3.5,1.3-5.2l0.2,0.2c0.4,0.4,0.7,0.7,1.1,1.3c0.6,0.6,0.9,0.9,1.5,1.5c0.7,0.7,1.5,1.3,2.2,1.8
		c1.1,0.9,2.2,1.5,3.3,2.2c0.9,0.6,2,0.9,2.9,1.5c2,0.9,4.2,1.5,6.4,1.8c0.9,0.2,1.7,0.2,2.6,0.4c0.4,0,0.4,0,0.4-0.4
		c-0.4-2.4-0.2-4.6,0.9-6.6c0.6-1.1,1.5-2,2.4-2.9c1.5-1.3,3.1-2,5-2.4c2-0.4,4,0,5.9,0.7c1.1,0.6,2,1.1,2.9,2
		c0.2,0.2,0.2,0.2,0.4,0.2c1.5-0.4,3.1-0.7,4.4-1.5c0.6-0.2,0.9-0.6,1.5-0.7c0,0,0,0,0.2,0c-0.4,1.1-0.9,2.2-1.7,3.1
		s-1.7,1.7-2.6,2.4c1.8-0.2,3.9-0.7,5.5-1.5l0,0c-0.2,0.2-0.4,0.6-0.6,0.7c-0.7,0.9-1.5,1.8-2.4,2.6c-0.6,0.6-1.3,1.1-1.8,1.7
		c-0.2,0.2-0.2,0.2-0.2,0.6c0,0.4,0,0.7,0,1.1c0,1.7-0.2,3.3-0.6,5c-0.4,2.2-1.1,4.4-2,6.4c-0.7,1.5-1.5,2.9-2.4,4.4
		c-0.7,1.1-1.5,2.2-2.4,3.1c-0.9,1.1-1.8,2-2.9,2.9c-1.3,1.1-2.6,2-3.9,2.8c-2.2,1.3-4.4,2.2-7,2.9c-1.5,0.4-2.9,0.7-4.4,0.7
		c-0.7,0-1.3,0.2-2,0.2c-0.6,0-1.1,0-1.5,0c-1.3,0-2.4,0-3.7-0.2c-1.8-0.2-3.7-0.7-5.3-1.3c-2.2-0.7-4.2-1.7-6.1-2.9
		c0,0,0,0-0.2-0.2c2.6,0.4,5.2,0,7.7-0.6C-462.6,265.3-460.4,264-458.2,262.3z"/>
</g>
</svg>
