<?xml version="1.0" encoding="utf-8"?>
<!-- Generator: Adobe Illustrator 19.0.0, SVG Export Plug-In . SVG Version: 6.00 Build 0)  -->
<svg version="1.1" id="Layer_1" xmlns="http://www.w3.org/2000/svg" xmlns:xlink="http://www.w3.org/1999/xlink" x="0px" y="0px"
	 viewBox="0 0 114.9 156.3" style="enable-background:new 0 0 114.9 156.3;" xml:space="preserve">
<g id="XMLID_60_">
	<path id="XMLID_66_" d="M113.8,17.4c0-11-5.7-16.5-16.8-16.6c-11-0.1-22,0-33,0c-12.6,0-25.3,0-36.8,0c-9.1,9-17.5,17.3-26.1,25.7
		c0,0.3-0.2,0.8-0.2,1.3c0,37.5-0.1,75,0,112.4c0,9.8,6.2,15.4,16.3,15.4c26.5,0.1,53,0.1,79.5,0c11.2,0,17-5.6,17-16.9
		C113.9,98.3,113.9,57.8,113.8,17.4z M59.6,17.4c12.3,0,24.4,0,36.9,0c0,12.5,0,24.8,0,37.3c-12.8,0-24.5,0-36.9,0
		C59.6,42.3,59.6,30.1,59.6,17.4z M17.3,115.5c26.7,0,53.3,0,80.7,0c0,2.2,0,4.1,0,6.3c-27,0-53.7,0-80.7,0
		C17.3,119.6,17.3,117.8,17.3,115.5z M98,97.8c0,2.1,0,4,0,6.3c-27,0-53.7,0-80.7,0c0-2.2,0-3.9,0-6.3C44,97.8,70.6,97.8,98,97.8z
		 M17.3,86.4c0-2.2,0-4.1,0-6.4c26.8,0,53.3,0,80.5,0c0.1,2,0.3,4,0.4,6.4C71.1,86.4,44.6,86.4,17.3,86.4z M17.3,139.5
		c0-2.2,0-4.1,0-6.4c26.9,0,53.4,0,80.6,0c0.1,2,0.3,4,0.4,6.4C71.1,139.5,44.6,139.5,17.3,139.5z M17.3,68.6c0-2.3,0-4.1,0-6.4
		c26.9,0,53.4,0,80.6,0c0.1,2,0.3,4,0.4,6.4C71,68.6,44.3,68.6,17.3,68.6z"/>
</g>
</svg>
