<?xml version="1.0" encoding="utf-8"?>
<!-- Generator: Adobe Illustrator 19.0.0, SVG Export Plug-In . SVG Version: 6.00 Build 0)  -->
<svg version="1.1" id="Layer_1" xmlns="http://www.w3.org/2000/svg" xmlns:xlink="http://www.w3.org/1999/xlink" x="0px" y="0px"
	 viewBox="0 0 114.9 156.3" style="enable-background:new 0 0 114.9 156.3;" xml:space="preserve">
<g id="XMLID_1_">
	<path id="XMLID_62_" d="M1.1,26.5C9.7,18.1,18.1,9.8,27.2,0.8c11.6,0,24.2,0,36.8,0c11,0,22-0.1,33,0c11,0.1,16.7,5.6,16.8,16.6
		c0.1,40.5,0.1,81,0,121.4c0,11.3-5.7,16.9-17,16.9c-26.5,0-53,0-79.5,0C7.2,155.7,1,150,1,140.2c-0.1-37.5,0-75,0-112.4
		C1,27.3,1.1,26.8,1.1,26.5z M7.7,25.7c-0.2,1.7-0.3,2.7-0.3,3.7c0,36.6,0,73.3,0,109.9c0,7.5,2.7,9.9,10.5,9.9
		c26.1,0.1,52.3,0.1,78.4,0c8.6,0,10.8-2.3,10.8-11c0-39.8,0-79.6,0-119.4c0-9.4-2.1-11.6-11.4-11.6c-21.6,0-43.3,0-64.9,0
		c-1.6,0-3.2,0.2-5.1,0.3c0,6.3,0,12.1,0,18.3C19.7,25.7,13.9,25.7,7.7,25.7z"/>
	<path id="XMLID_53_" d="M96.4,54.7c-12.8,0-24.5,0-36.9,0c0-12.4,0-24.6,0-37.3c12.3,0,24.4,0,36.9,0
		C96.4,29.9,96.4,42.2,96.4,54.7z"/>
	<path id="XMLID_52_" d="M98,97.8c0,2.1,0,4,0,6.3c-27,0-53.7,0-80.7,0c0-2.2,0-3.9,0-6.3C44,97.8,70.6,97.8,98,97.8z"/>
	<path id="XMLID_51_" d="M17.3,68.6c0-2.3,0-4.1,0-6.4c26.9,0,53.4,0,80.6,0c0.1,2,0.3,4,0.4,6.4C71,68.6,44.3,68.6,17.3,68.6z"/>
	<path id="XMLID_50_" d="M17.3,139.5c0-2.2,0-4.1,0-6.4c26.9,0,53.4,0,80.6,0c0.1,2,0.3,4,0.4,6.4C71.1,139.5,44.6,139.5,17.3,139.5
		z"/>
	<path id="XMLID_49_" d="M17.3,86.4c0-2.2,0-4.1,0-6.4c26.8,0,53.3,0,80.5,0c0.1,2,0.3,4,0.4,6.4C71.1,86.4,44.6,86.4,17.3,86.4z"/>
	<path id="XMLID_48_" d="M98,115.5c0,2.2,0,4.1,0,6.3c-27,0-53.7,0-80.7,0c0-2.2,0-3.9,0-6.3C44,115.5,70.6,115.5,98,115.5z"/>
</g>
</svg>
