<svg version="1.1" baseProfile="basic"
	 xmlns="http://www.w3.org/2000/svg" xmlns:xlink="http://www.w3.org/1999/xlink" xmlns:a="http://ns.adobe.com/AdobeSVGViewerExtensions/3.0/"
	 x="0px" y="0px" width="512px" height="384px" viewBox="0 0 512 384" enable-background="new 0 0 512 384" xml:space="preserve">
<g id="IzOaur.tif_1_">
    <path id="XMLID_18_" d="M314,384c-2.2-0.8-4.3-1.5-6.4-2.5c-20-8.7-27-35.4-9.6-52.6c44.5-44,88.7-88.5,132.9-132.8
        c1.3-1.3,2.5-2.6,3.9-4.1c-1.4-1.5-2.7-2.9-3.9-4.1C387.2,144.2,344,100,299.6,57c-21.9-21.2-9.3-51.9,13.6-56.4
        c0.3-0.1,0.5-0.4,0.8-0.6c4,0,8,0,12,0c8.8,2.4,15.3,8.2,21.6,14.5c49.1,49.3,98.3,98.5,147.5,147.6c6.8,6.8,13.7,13.5,16.9,22.9
        c0,4.7,0,9.3,0,14c-2.6,8.4-8.4,14.4-14.4,20.4c-50.1,50-100.1,99.9-150,150c-6.3,6.3-12.8,12.1-21.6,14.5
        C322,384,318,384,314,384z"/>
    <path id="XMLID_17_" d="M198,0c2.1,0.8,4.3,1.6,6.4,2.5c21.1,9.2,26.2,35.6,9.8,52.2c-31.2,31.4-62.6,62.7-94,94
        c-13.2,13.2-26.4,26.4-39.6,39.6c-1.2,1.2-2.2,2.4-3.5,3.8c1.4,1.5,2.6,2.8,3.9,4.1c44.3,44.3,88.4,88.7,132.9,132.8
        c17.5,17.4,10.3,44-9.5,52.6c-2.1,0.9-4.3,1.7-6.4,2.5c-4,0-8,0-12,0c-8.8-2.4-15.3-8.2-21.6-14.5
        c-50-50.2-100.2-100.3-150.4-150.4C8.2,213.2,2.5,207.2,0,199c0-4.7,0-9.3,0-14c3.2-9.2,9.8-15.8,16.5-22.5
        c49.4-49.2,98.7-98.5,147.9-147.9C170.7,8.2,177.2,2.4,186,0C190,0,194,0,198,0z"/>
</g>
</svg>
