<svg version="1.1" baseProfile="basic"
	 xmlns="http://www.w3.org/2000/svg" xmlns:xlink="http://www.w3.org/1999/xlink" xmlns:a="http://ns.adobe.com/AdobeSVGViewerExtensions/3.0/"
	 x="0px" y="0px" width="16.7px" height="14.7px" viewBox="0 0 16.7 14.7" enable-background="new 0 0 16.7 14.7"
	 xml:space="preserve">
<g id="_x31_nvnMC.tif_1_">
    <path id="XMLID_19_" d="M15.9,0c0.1,0,0.3,0,0.4,0c0.2,0.1,0.3,0.4,0.3,0.6c0,0.1,0,0.2,0.1,0.2c0,0.6,0,1.1,0,1.7
        c0,0-0.1,0-0.1,0.1c-0.1,0.6-0.3,1.2-0.7,1.7c-0.3,0.4-0.7,0.8-1.2,0.7c0,0.2,0,0.4,0,0.6c0,0.2,0,0.4,0.1,0.6
        c0.1,0.4,0.2,0.9,0.6,1.1c0.5,0.3,0.8,1.4,0.6,1.9c-0.3,0.6-0.7,1-1.2,1.4c-0.5,0.3-1,0.6-1.5,0.9c0,0,0,0,0,0
        c0.4,0.6,0.7,1.2,1.1,1.8c0.3,0.5,0.3,1-0.2,1.3c-0.2,0-0.4,0-0.6,0c-0.2-0.3-0.5-0.6-0.6-0.9c-0.3-0.4-0.5-0.8-0.7-1.3
        c-0.1,0.2-0.2,0.3-0.4,0.4c-0.6,0.6-1.2,1.2-1.8,1.7c-0.2,0-0.4,0-0.6,0c-0.6-0.4-0.5-1-0.1-1.4c0.3-0.3,0.6-0.6,0.8-0.9
        c0.4-0.5,0.9-0.9,1.4-1.4c-0.2,0-0.4-0.1-0.6-0.1c0.1-0.1,0.1-0.2,0.2-0.3c0.4-0.4,0.9-0.9,1.3-1.3c0.7-0.7,1-1.5,0.6-2.4
        c0-0.1-0.1-0.1-0.2-0.2c-0.2-0.1-0.3-0.3-0.5-0.4c-0.3,0.1-0.6,0.2-1,0.3c-0.7,0.3-1.4,0.2-2,0.6C8.9,7.5,8.4,7.6,7.9,7.8
        C7.7,7.9,7.3,8,7.1,7.8C6.7,7.6,6.3,7.4,5.9,7.1C5.4,7.8,5,8.5,4.6,9.2c1,0.3,1.9,0.5,2.8,0.8c0.4,0.1,0.7,0.6,0.6,1.1
        C7.7,12.1,7.3,13,7.1,14c-0.1,0.4-0.3,0.6-0.6,0.8c-0.2,0-0.4,0-0.5,0c0,0,0,0,0,0c-0.5-0.2-0.7-0.5-0.6-1
        c0.2-0.7,0.4-1.4,0.6-2.1c-0.2-0.1-0.4-0.1-0.6-0.2c0.1,0.1,0.1,0.2,0.1,0.3c0.3,0.6,0.2,1.1-0.4,1.4c-1.2,0.6-2.3,1.2-3.5,1.8
        c-0.1,0-0.2,0-0.4,0c0,0,0-0.1-0.1-0.1c-0.4-0.1-0.6-0.3-0.6-0.7c-0.1-0.4,0.1-0.7,0.5-0.9c0.2-0.1,0.3-0.2,0.5-0.3
        c0.7-0.3,1.4-0.7,2-1c-0.1-0.1-0.1-0.2-0.2-0.3c-0.3-0.3-0.5-0.8-0.8-1C2.1,10.1,2,9.7,2,9.2c0-0.3,0.1-0.6,0.3-1
        c0.2-0.5,0.4-0.9,0.6-1.4C2.2,7,1.7,7.3,1.3,7.9C1.1,8,1,8.2,0.7,8.3C0.3,8.3,0.2,8.1,0,7.9c0-0.1,0-0.2,0-0.4
        c0.5-0.8,1.2-1.3,2.1-1.7c0.6-0.2,1.3-0.2,1.9-0.2c0.1,0,0.2,0,0.3,0c0.2-0.3,0.5-0.3,0.7-0.3c0.4,0,0.7,0.1,1,0.4
        c0.5,0.4,1,0.6,1.5,0.9c0.1,0,0.2,0,0.2,0c0.6-0.3,1.2-0.5,1.8-0.5c0.9-0.1,1.9-0.3,2.7-0.8c0.1-0.1,0.2-0.2,0.2-0.3
        c0.1-0.4,0.6-1,1-1.1c0.5-0.1,0.8,0,1.1,0.3c0.1,0,0.2-0.1,0.2-0.1c1-0.6,1.1-1.7,1.1-2.7c0-0.3-0.1-0.6-0.1-0.8
        C15.6,0.3,15.7,0.1,15.9,0z"/>
    <path id="XMLID_18_" d="M16.7,0.8c0-0.1-0.1-0.2-0.1-0.2c0-0.2-0.1-0.5-0.3-0.6c0.1,0,0.2,0,0.4,0
        C16.7,0.3,16.7,0.6,16.7,0.8z"/>
    <path id="XMLID_17_" d="M6.4,5.4C5.4,5.5,4.8,4.7,4.8,3.9c0-0.8,0.6-1.5,1.6-1.5c0.8,0,1.5,0.7,1.5,1.5
        C7.9,4.7,7.3,5.5,6.4,5.4z"/>
    <path id="XMLID_16_" d="M12.4,4C11.7,4.1,11,3.4,11,2.6c0-0.7,0.6-1.4,1.4-1.4c0.8,0,1.4,0.7,1.4,1.4
        C13.8,3.4,13.1,4.1,12.4,4z"/>
</g>
</svg>
