<svg version="1.1" baseProfile="basic"
	 xmlns="http://www.w3.org/2000/svg" xmlns:xlink="http://www.w3.org/1999/xlink" xmlns:a="http://ns.adobe.com/AdobeSVGViewerExtensions/3.0/"
	 x="0px" y="0px" width="1000px" height="1000px" viewBox="0 0 1000 1000" enable-background="new 0 0 1000 1000"
	 xml:space="preserve">
<g id="INjRVW.tif_1_">
    <path id="XMLID_17_" d="M480,0c13.3,0,26.7,0,40,0c2,0.3,3.9,0.8,5.9,0.9c38.2,1.8,75.8,7.7,112.4,18.8
        C783.1,63.6,888.4,154,953.7,290.4c25.6,53.5,39.9,110.2,44.4,169.3c0.5,6.8,1.3,13.5,1.9,20.3c0,13.3,0,26.7,0,40
        c-0.3,2.3-0.8,4.6-0.9,6.9c-1.2,25-4.2,49.7-9.4,74.2c-20.5,96.6-64.8,180.6-134.6,250.5c-86.8,87-191.7,135.9-314.3,146.5
        c-6.9,0.6-13.9,1.3-20.8,2c-13.3,0-26.7,0-40,0c-2.1-0.3-4.2-0.8-6.3-0.9c-26-1.3-51.7-4.5-77.1-10
        c-118.9-26-216.2-86.8-291.2-182.5C44.3,728.5,10,639.6,1.9,540.8C1.4,533.8,0.6,526.9,0,520c0-13.3,0-26.7,0-40
        c0.3-2.3,0.8-4.5,0.9-6.8c1.3-28.2,4.9-56,11.4-83.5C39.7,273.1,100.4,177.5,195,104.1C272.7,43.9,361.1,10,459.2,1.9
        C466.1,1.3,473.1,0.6,480,0z M950.4,475.2c-5.3-87.3-33-166.1-83.3-237.3c-38.8,26.2-79.4,47.3-122.2,64.7
        c18.7,56.3,29.1,113.6,31.8,172.6C834.8,475.2,892.2,475.2,950.4,475.2z M49.6,475.1c58.4,0,115.8,0,172.2,0
        c3.8-29.5,6.3-58.7,11.6-87.4c5.3-28.7,13.3-56.8,20-85c-19.8-9.5-40.8-18.7-61-29.4c-20.4-10.8-40-23-60.2-34.7
        C82.5,309.3,54.9,388,49.6,475.1z M777.2,524.9c-1.2,15.3-2,30.1-3.6,44.9c-4.4,42.1-13.2,83.3-26,123.7c-1.2,3.8-0.2,5,3.1,6.6
        c25.2,12.1,50.4,23.9,75.2,36.8c14.1,7.3,27.3,16.4,41.4,24.9c50-71,77.7-149.7,83-236.9C892.2,524.9,834.9,524.9,777.2,524.9z
         M132.9,762.1c1.7-1.1,2.9-1.9,4.1-2.7c35.2-23.3,72.3-42.9,111.3-59c4.4-1.8,5.1-3.5,3.7-8c-14.3-45.4-23.6-91.7-27.1-139.2
        c-0.7-9.4-1.4-18.8-2.1-28.3c-57.8,0-115.1,0-173.2,0C55,612.1,82.6,690.8,132.9,762.1z M272.1,524.9
        c2.2,53.5,11.3,105.4,27.2,155.2c29.5-6.8,58.1-14.6,87.1-19.6c29.2-5.1,58.9-7.5,88.6-11.1c0-40.8,0-82.5,0-124.4
        C407.3,524.9,339.9,524.9,272.1,524.9z M700.5,680.7c16.2-50.5,25.2-102.4,27.4-155.8c-68,0-135.4,0-202.8,0
        c-0.2,0.8-0.5,1.2-0.5,1.7c0,40.3,0,80.6-0.1,120.9c0,2.6,1.1,3.4,3.6,3.5c5.8,0.2,11.6,0.6,17.5,1c30.8,1.9,61.3,5.9,91.3,12.8
        C657.9,669.5,678.8,675.2,700.5,680.7z M698.4,319.2c-1.8,0.5-3.2,1-4.6,1.4c-53.7,16.4-108.6,26.2-164.7,28.3
        c-4.6,0.2-4.5,2.4-4.5,5.6c0,38.5,0,77,0,115.5c0,1.6,0.2,3.2,0.3,5.1c67.7,0,135,0,202.4,0C729.2,444,711.2,346.7,698.4,319.2z
         M300.9,320.5c-13,31-31.2,130.7-27.9,154.5c67.3,0,134.7,0,202,0c0-42.1,0-83.8,0-124.3c-29.6-3.6-58.8-6-87.6-11
        C358.4,334.7,330,327.1,300.9,320.5z M475,945.9c0-82.7,0-164.1,0-245.6c-27.4-2.9-129.7,14.9-158.3,27.5
        C352.5,812.4,404.8,884.9,475,945.9z M683.5,727.4c-51.9-16.2-104.5-25.5-158.5-27.6c0,82.2,0,163.6,0,246.2
        C595.2,884.9,647.5,812.5,683.5,727.4z M474.9,300.3c0-80.7,0-160.4,0-241.2C406,118.9,354.3,189.9,318.4,273.2
        C369.8,289.1,421.6,298.1,474.9,300.3z M681.7,273.2C645.5,189.7,593.8,118.7,525,59c0,81.1,0,160.9,0,241.3
        C578.4,298.1,630.2,289.1,681.7,273.2z M401.7,60.2C307.6,81.4,228.6,128,163.8,199.3c19,15.2,92.8,53.8,108.8,56.8
        C303.5,183,346.7,117.8,401.7,60.2z M727.6,256.7c38.4-15.2,74.2-34.4,108.8-57.1C771.4,128.1,692.4,81.4,598.3,60.2
        C653.3,117.8,696.5,183,727.6,256.7z M395.9,938.5c-53.4-57.4-95.3-122-125.3-194.5c-37.7,15.2-73,34.1-107,56.5
        C227.3,870.5,304.4,916.6,395.9,938.5z M836.5,800.4C802.1,778,766.9,759,729.4,744c-30.1,72.7-72,137.2-125.4,194.6
        C695.7,916.5,772.8,870.4,836.5,800.4z"/>
</g>
</svg>
