<?xml version="1.0" encoding="utf-8"?>
<!-- Generator: Adobe Illustrator 19.0.0, SVG Export Plug-In . SVG Version: 6.00 Build 0)  -->
<svg version="1.1" id="Capa_1" xmlns="http://www.w3.org/2000/svg" xmlns:xlink="http://www.w3.org/1999/xlink" x="0px" y="0px"
	 viewBox="20 -20 90 90" style="enable-background:new 20 -20 90 90;" xml:space="preserve">
<style type="text/css">
	.st0{fill:#1F1F1F;}
</style>
<g id="k4rx73.tif">
	<g>
		<path class="st0" d="M22.2-12.5c0.1-0.4,0.2-0.7,0.3-1.1c0.3-1,0.9-1.7,1.8-2.2c0.6-0.3,1-0.3,1.5,0.2C38.9-2.4,52,10.8,65.1,23.9
			c0.1,0.1,0.2,0.3,0.4,0.5c-0.2,0.3-0.5,0.5-0.7,0.8c-12.9,13-25.8,26-38.7,39c-0.9,0.9-1.6,1-2.4,0c-0.5-0.6-0.8-1.5-1.2-2.2
			c-0.1-0.2-0.1-0.4-0.2-0.6C22.2,36.7,22.2,12.1,22.2-12.5z"/>
		<path class="st0" d="M32.3-18c5.8,3.1,11.7,6.2,17.5,9.4C60.7-2.7,71.7,3.3,82.6,9.2c0.3,0.2,0.6,0.4,0.9,0.5
			C79.2,14,75,18.2,70.7,22.4c-0.1-0.1-0.3-0.3-0.5-0.5C57.2,8.9,44.3-4.2,31.4-17.2c-0.2-0.2-0.4-0.5-0.7-0.8
			C31.2-18,31.8-18,32.3-18z"/>
		<path class="st0" d="M29.1,68.3c0.2-0.2,0.3-0.4,0.5-0.6c13-13.1,26-26.2,39-39.3c0.2-0.2,0.3-0.3,0.3-0.3
			c4.2,4.1,8.4,8.2,12.6,12.4c-17,9.3-34,18.5-51,27.8C30,68.3,29.6,68.3,29.1,68.3z"/>
		<path class="st0" d="M87,36.8c-4.2-4.2-8.4-8.2-12.6-12.4c0.2-0.3,0.4-0.5,0.6-0.7c3.8-3.9,7.7-7.7,11.5-11.6
			c0.5-0.5,0.8-0.5,1.4-0.2c5.4,3,10.8,5.9,16.2,8.8c0.7,0.4,1.4,0.8,2,1.3c1.2,1.1,1.3,2.4,0.2,3.6c-0.5,0.6-1,1.1-1.7,1.4
			c-5.8,3.2-11.6,6.4-17.5,9.6C87.1,36.8,87,36.9,87,36.8z"/>
	</g>
</g>
</svg>
