<?xml version="1.0" encoding="utf-8"?>
<!-- Generator: Adobe Illustrator 19.0.0, SVG Export Plug-In . SVG Version: 6.00 Build 0)  -->
<svg version="1.1" id="Capa_1" xmlns="http://www.w3.org/2000/svg" xmlns:xlink="http://www.w3.org/1999/xlink" x="0px" y="0px"
	 viewBox="190 -190.1 430.1 430.1" style="enable-background:new 190 -190.1 430.1 430.1;" xml:space="preserve">
<style type="text/css">
	.st0{fill:#1F1F1F;}
</style>
<g>
	<path id="LinkedIn" class="st0" d="M620.1,71.4v159h-92.2V82.1c0-37.3-13.3-62.7-46.7-62.7c-25.5,0-40.6,17.1-47.3,33.7
		c-2.4,5.9-3.1,14.2-3.1,22.5v154.9h-92.2c0,0,1.2-251.3,0-277.3h92.2v39.3c-0.2,0.3-0.4,0.6-0.6,0.9h0.6v-0.9
		C443.1-26.4,465-53.4,514-53.4C574.6-53.4,620.1-13.8,620.1,71.4z M242.2-180.6c-31.5,0-52.2,20.7-52.2,47.9
		c0,26.6,20,47.9,51,47.9h0.6c32.2,0,52.2-21.3,52.2-47.9C293.1-159.9,273.7-180.6,242.2-180.6z M195.5,230.4h92.2V-46.9h-92.2
		V230.4z"/>
</g>
</svg>
