<svg version="1.1" baseProfile="basic"
	 xmlns="http://www.w3.org/2000/svg" xmlns:xlink="http://www.w3.org/1999/xlink" xmlns:a="http://ns.adobe.com/AdobeSVGViewerExtensions/3.0/"
	 x="0px" y="0px" width="133.8px" height="134.8px" viewBox="0 0 133.8 134.8" enable-background="new 0 0 133.8 134.8"
	 xml:space="preserve">
<defs>
</defs>
<path id="XMLID_112_" d="M97.1,109.2h-59c-6.6,0-12-5.4-12-12v-59c0-6.6,5.4-12,12-12h59c6.6,0,12,5.4,12,12v59
	C109.1,103.8,103.7,109.2,97.1,109.2z"/>
<g id="XMLID_109_">
	<rect id="XMLID_111_" x="37.1" y="4.2" width="8.5" height="17.5"/>
	<circle id="XMLID_110_" cx="41.4" cy="4.2" r="4.2"/>
</g>
<g id="XMLID_106_">
	<rect id="XMLID_108_" x="54.1" y="4.2" width="8.5" height="17.5"/>
	<circle id="XMLID_107_" cx="58.4" cy="4.2" r="4.2"/>
</g>
<g id="XMLID_103_">
	<rect id="XMLID_105_" x="71.1" y="4.2" width="8.5" height="17.5"/>
	<circle id="XMLID_104_" cx="75.4" cy="4.2" r="4.2"/>
</g>
<g id="XMLID_100_">
	<rect id="XMLID_102_" x="88.1" y="4.2" width="8.5" height="17.5"/>
	<circle id="XMLID_101_" cx="92.4" cy="4.2" r="4.2"/>
</g>
<g id="XMLID_97_">
	<rect id="XMLID_99_" x="112" y="37.1" width="17.5" height="8.5"/>
	<circle id="XMLID_98_" cx="129.5" cy="41.4" r="4.2"/>
</g>
<g id="XMLID_94_">
	<rect id="XMLID_96_" x="112" y="54.1" width="17.5" height="8.5"/>
	<circle id="XMLID_95_" cx="129.5" cy="58.4" r="4.2"/>
</g>
<g id="XMLID_91_">
	<rect id="XMLID_93_" x="112" y="71.1" width="17.5" height="8.5"/>
	<circle id="XMLID_92_" cx="129.5" cy="75.4" r="4.2"/>
</g>
<g id="XMLID_88_">
	<rect id="XMLID_90_" x="112" y="88.1" width="17.5" height="8.5"/>
	<circle id="XMLID_89_" cx="129.5" cy="92.4" r="4.2"/>
</g>
<g id="XMLID_85_">
	<rect id="XMLID_87_" x="88.1" y="113" width="8.5" height="17.5"/>
	<circle id="XMLID_86_" cx="92.4" cy="130.5" r="4.2"/>
</g>
<g id="XMLID_82_">
	<rect id="XMLID_84_" x="71.1" y="113" width="8.5" height="17.5"/>
	<circle id="XMLID_83_" cx="75.4" cy="130.5" r="4.2"/>
</g>
<g id="XMLID_79_">
	<rect id="XMLID_81_" x="54.1" y="113" width="8.5" height="17.5"/>
	<circle id="XMLID_80_" cx="58.4" cy="130.5" r="4.2"/>
</g>
<g id="XMLID_76_">
	<rect id="XMLID_78_" x="37.1" y="113" width="8.5" height="17.5"/>
	<circle id="XMLID_77_" cx="41.4" cy="130.5" r="4.2"/>
</g>
<g id="XMLID_73_">
	<rect id="XMLID_75_" x="4.2" y="89" width="17.5" height="8.5"/>
	<circle id="XMLID_74_" cx="4.2" cy="93.2" r="4.2"/>
</g>
<g id="XMLID_70_">
	<rect id="XMLID_72_" x="4.2" y="72" width="17.5" height="8.5"/>
	<circle id="XMLID_71_" cx="4.2" cy="76.2" r="4.2"/>
</g>
<g id="XMLID_67_">
	<rect id="XMLID_69_" x="4.2" y="55" width="17.5" height="8.5"/>
	<circle id="XMLID_68_" cx="4.2" cy="59.2" r="4.2"/>
</g>
<g id="XMLID_64_">
	<rect id="XMLID_66_" x="4.2" y="38" width="17.5" height="8.5"/>
	<circle id="XMLID_65_" cx="4.2" cy="42.2" r="4.2"/>
</g>
</svg>
