<?xml version="1.0" encoding="utf-8"?>
<!-- Generator: Adobe Illustrator 19.0.0, SVG Export Plug-In . SVG Version: 6.00 Build 0)  -->
<svg version="1.1" id="Capa_1" xmlns="http://www.w3.org/2000/svg" xmlns:xlink="http://www.w3.org/1999/xlink" x="0px" y="0px"
	 viewBox="190 -190.1 430.1 430.1" style="enable-background:new 190 -190.1 430.1 430.1;" xml:space="preserve">
<style type="text/css">
	.st0{fill:#1F1F1F;}
</style>
<g>
	<path id="Twitter__x28_alt_x29_" class="st0" d="M571.4,8.5c24.2-2,40.5-13,46.8-27.9c-8.7,5.4-35.8,11.2-50.7,5.6
		c-0.7-3.5-1.6-6.8-2.4-9.9C553.8-65.4,514.8-99,474-95c3.3-1.3,6.7-2.6,10-3.7c4.5-1.6,30.9-5.9,26.7-15.2
		c-3.5-8.2-35.7,6.2-41.8,8.1c8-3,21.3-8.2,22.7-17.4c-12.3,1.7-24.3,7.5-33.6,15.9c3.4-3.6,5.9-8,6.5-12.8
		C431.7-99.2,412.6-57,397.1-16.1c-12.1-11.8-22.9-21-32.6-26.2C337.4-56.8,305-72,254.2-90.9c-1.6,16.8,8.3,39.2,36.8,54.1
		c-6.2-0.8-17.5,1-26.5,3.2c3.7,19.3,15.7,35.2,48.2,42.8c-14.8,1-22.5,4.4-29.5,11.6c6.8,13.4,23.3,29.2,53,25.9
		c-33,14.2-13.5,40.6,13.4,36.6c-45.8,47.3-118,43.8-159.5,4.3C298.3,235.3,533.7,175,568.8,32.8c26.3,0.2,41.7-9.1,51.3-19.4
		C605,16,583,13.4,571.4,8.5z"/>
</g>
</svg>
